<svg width="388.6025146484375px" height="105.1912109375px" xmlns="http://www.w3.org/2000/svg" viewBox="0 0 500 150" style="background: none;"><defs><filter id="editing-marble" x="-100%" y="-100%" width="300%" height="300%"><feFlood flood-color="#e5075d" result="flood-1"></feFlood><feComposite operator="in" in="flood-1" in2="SourceAlpha" result="flood-2"></feComposite><feTurbulence baseFrequency="0" type="fractalNoise" numOctaves="1" seed="2" result="bs-1"></feTurbulence><feGaussianBlur stdDeviation="2.8" in="flood-2" result="bs-2"></feGaussianBlur><feDisplacementMap scale="96" in="bs-2" in2="bs-1" result="bs-3"></feDisplacementMap><feComposite operator="in" in="bs-3" in2="SourceAlpha" result="texture"></feComposite><feMerge><feMergeNode in="SourceGraphic"></feMergeNode><feMergeNode in="texture"></feMergeNode></feMerge></filter></defs><g filter="url(#editing-marble)"><g transform="translate(117.13437807559967, 94.15667533874512)"><path d="M48.90 4.45L48.90 4.45L48.90 4.45Q49 4.50 49 4.65L49 4.65L49 4.65Q48.90 5 48.60 4.80L48.60 4.80L48.60 4.80Q44.25 1.75 44.25-4.15L44.25-4.15L44.25-4.15Q44.25-6.60 45.23-9.38L45.23-9.38L45.23-9.38Q46.20-12.15 48.70-16.05L48.70-16.05L48.70-16.05Q51.20-19.95 53.55-22.80L53.55-22.80L53.55-22.80Q55.90-25.65 58.08-28.13L58.08-28.13L58.08-28.13Q60.25-30.60 60.35-30.80L60.35-30.80L60.35-30.80Q60.95-31.70 61.15-30.60L61.15-30.60L61.15-30.60Q61.20-30.25 61.20-29.80L61.20-29.80L61.20-29.80Q61.20-29.35 60.95-29L60.95-29L60.95-29Q57.85-25.20 54.95-20.40L54.95-20.40L54.95-20.40Q50.10-12.30 48-5.65L48-5.65L48-5.65Q47.20-3 47.20-0.15L47.20-0.15L47.20-0.15Q47.20 2.70 48.90 4.45ZM7.30-13.05L7.30-13.05L7.30-13.05Q15.50-16.45 27.05-16.45L27.05-16.45L27.05-16.45Q32.75-16.45 38.45-14.65L38.45-14.65L38.45-14.65Q39.80-16.05 42.45-18.82L42.45-18.82L42.45-18.82Q45.10-21.60 46.65-23.20L46.65-23.20L46.65-23.20Q51.15-27.85 54-30.05L54-30.05L54-30.05Q58.80-33.80 62.80-33.80L62.80-33.80L62.80-33.80Q64.60-33.80 66.10-33.23L66.10-33.23L66.10-33.23Q67.60-32.65 67.90-32.33L67.90-32.33L67.90-32.33Q68.20-32 68.20-31.95L68.20-31.95L68.20-31.95Q68.20-31.90 68.10-31.78L68.10-31.78L68.10-31.78Q68-31.65 67.80-31.90L67.80-31.90L67.80-31.90Q66.85-32.80 64.10-32.80L64.10-32.80L64.10-32.80Q59.45-32.80 54.30-28.75L54.30-28.75L54.30-28.75Q50.60-25.75 48.15-23.28L48.15-23.28L48.15-23.28Q45.70-20.80 43.03-18.03L43.03-18.03L43.03-18.03Q40.35-15.25 39.40-14.30L39.40-14.30L39.40-14.30Q44.40-12.45 44.85-9.45L44.85-9.45L44.85-9.45Q44.90-9.15 44.83-9.05L44.83-9.05L44.83-9.05Q44.75-8.95 44.63-9.05L44.63-9.05L44.63-9.05Q44.50-9.15 44.45-9.35L44.45-9.35L44.45-9.35Q44.05-10.30 41.65-10.85L41.65-10.85L41.65-10.85Q39.50-11.35 36.70-11.60L36.70-11.60L36.70-11.60Q26.55-1.80 18.75 0.85L18.75 0.85L18.75 0.85Q14.50 2.35 10.70 2.35L10.70 2.35L10.70 2.35Q3.90 2.35 1.28 0.33L1.28 0.33L1.28 0.33Q-1.35-1.70-1.35-4.15L-1.35-4.15L-1.35-4.15Q-1.35-5.10-1-6.10L-1-6.10L-1-6.10Q0.50-10.20 7.30-13.05ZM32.35-11.80L32.35-11.80L32.35-11.80Q25.70-11.80 18.35-10.40L18.35-10.40L18.35-10.40Q7.05-8.40 3.65-4.45L3.65-4.45L3.65-4.45Q2.60-3.20 2.60-2.10L2.60-2.10L2.60-2.10Q2.60-0.80 4 0.25L4 0.25L4 0.25Q5.65 1.50 9.73 1.50L9.73 1.50L9.73 1.50Q13.80 1.50 18.55 0.15L18.55 0.15L18.55 0.15Q25.65-2.05 35.45-11.70L35.45-11.70L35.45-11.70Q33.90-11.80 32.35-11.80ZM48.60-2.75L48.60-2.75L48.60-2.75Q48.55-2.80 48.55-2.90L48.55-2.90L48.55-2.90Q48.55-3 48.73-3L48.73-3L48.73-3Q48.90-3 48.95-2.80L48.95-2.80L48.95-2.80Q49.85-0.80 51.90-0.80L51.90-0.80L51.90-0.80Q54.45-0.80 56.35-3.30L56.35-3.30L56.35-3.30Q57.75-5.15 58.83-7.18L58.83-7.18L58.83-7.18Q59.90-9.20 60.63-10.40L60.63-10.40L60.63-10.40Q61.35-11.60 62.88-13.10L62.88-13.10L62.88-13.10Q64.40-14.60 65.65-14.95L65.65-14.95L65.65-14.95Q65.35-15.10 64.65-15.10L64.65-15.10L64.65-15.10Q63.95-15.10 62.02-14.08L62.02-14.08L62.02-14.08Q60.10-13.05 58.20-11.48L58.20-11.48L58.20-11.48Q56.30-9.90 54.10-7.90L54.10-7.90L54.10-7.90Q51.90-5.90 51.45-5.55L51.45-5.55L51.45-5.55Q51-5.20 50.90-5.55L50.90-5.55L50.90-5.55Q50.80-5.90 51.15-6.20L51.15-6.20L51.15-6.20Q52.45-7.30 54.90-9.63L54.90-9.63L54.90-9.63Q57.35-11.95 58.63-13.03L58.63-13.03L58.63-13.03Q59.90-14.10 61.50-14.88L61.50-14.88L61.50-14.88Q63.10-15.65 63.90-15.65L63.90-15.65L63.90-15.65Q65.90-15.65 66.35-14.95L66.35-14.95L66.35-14.95Q65.05-14.40 64.22-12.05L64.22-12.05L64.22-12.05Q63.40-9.70 62.38-6.60L62.38-6.60L62.38-6.60Q61.35-3.50 59.80-1.75L59.80-1.75L59.80-1.75Q61.10-2.25 63.83-4.08L63.83-4.08L63.83-4.08Q66.55-5.90 68.65-8.05L68.65-8.05L68.65-8.05Q69.10-8.45 69.30-8.15L69.30-8.15L69.30-8.15Q69.30-8.05 69.30-7.93L69.30-7.93L69.30-7.93Q69.30-7.80 68.35-6.85L68.35-6.85L68.35-6.85Q67.40-5.90 66.03-4.73L66.03-4.73L66.03-4.73Q64.65-3.55 62.60-2.10L62.60-2.10L62.60-2.10Q58.35 0.90 54.08 0.90L54.08 0.90L54.08 0.90Q49.80 0.90 48.60-2.75ZM80.60-12.20L80.60-12.20L80.60-12.20Q80.60-12.85 79.65-12.85L79.65-12.85L79.65-12.85Q77.95-12.85 75.50-10.45L75.50-10.45L75.50-10.45Q74.90-9.85 73.32-7.95L73.32-7.95L73.32-7.95Q71.75-6.05 70.25-3.60L70.25-3.60L69-0.85L69.15-1.35L69.15-1.35Q69.05-1.15 68.95-0.75L68.95-0.75L68.95-0.75L68.95-0.75Q68.70-0.15 67.50 0.25L67.50 0.25L67.50 0.25Q67.25 0.35 67.05 0.35L67.05 0.35L67.05 0.35Q66.55 0.35 66.95-0.40L66.95-0.40L66.95-0.40Q67.15-0.90 68.35-3.98L68.35-3.98L68.35-3.98Q69.55-7.05 70.30-8.90L70.30-8.90L70.30-8.90Q68.35-6.75 66.65-5.40L66.65-5.40L66.65-5.40Q66.15-5 65.95-5.30L65.95-5.30L65.95-5.30Q65.90-5.35 65.90-5.50L65.90-5.50L65.90-5.50Q65.90-5.65 66.35-6.05L66.35-6.05L66.35-6.05Q69.40-8.70 71.15-10.95L71.15-10.95L71.15-10.95Q72.45-14 75.92-19.43L75.92-19.43L75.92-19.43Q79.40-24.85 83.05-28.40L83.05-28.40L83.05-28.40Q85.50-30.85 88.35-31.70L88.35-31.70L88.35-31.70Q89.65-32.10 90.77-32.10L90.77-32.10L90.77-32.10Q91.90-32.10 92.88-31.48L92.88-31.48L92.88-31.48Q93.85-30.85 93.85-29.15L93.85-29.15L93.85-29.15Q93.85-26.90 92.35-24.60L92.35-24.60L92.35-24.60Q90.85-22.30 87.05-19.48L87.05-19.48L87.05-19.48Q83.25-16.65 80-15.25L80-15.25L80-15.25Q79.40-15 79.30-15.33L79.30-15.33L79.30-15.33Q79.20-15.65 79.80-15.90L79.80-15.90L79.80-15.90Q82.70-17.20 86.32-20L86.32-20L86.32-20Q89.95-22.80 91.17-24.78L91.17-24.78L91.17-24.78Q92.40-26.75 92.40-27.98L92.40-27.98L92.40-27.98Q92.40-29.20 91.35-29.20L91.35-29.20L91.35-29.20Q90.15-29.20 87.55-27.20L87.55-27.20L87.55-27.20Q83.70-24.10 79.47-18.55L79.47-18.55L79.47-18.55Q75.25-13 72.20-7.35L72.20-7.35L72.20-7.35Q73.60-9.35 74.75-10.65L74.75-10.65L74.75-10.65Q77.55-13.80 80.20-13.80L80.20-13.80L80.20-13.80Q82.70-13.80 83.15-11.60L83.15-11.60L83.15-11.60Q83.20-11.30 83.20-10.75L83.20-10.75L83.20-10.75Q83.20-10.20 82.82-9.13L82.82-9.13L82.82-9.13Q82.45-8.05 80.72-5.18L80.72-5.18L80.72-5.18Q79-2.30 79-1.70L79-1.70L79-1.70Q79-1.10 79.40-1.10L79.40-1.10L79.40-1.10Q79.95-1.10 81.05-1.80L81.05-1.80L81.05-1.80Q83.85-3.55 88.35-7.70L88.35-7.70L88.35-7.70Q88.95-8.30 88.92-7.90L88.92-7.90L88.92-7.90Q88.90-7.50 88.60-7.15L88.60-7.15L88.60-7.15Q84.90-3.35 80.95-0.80L80.95-0.80L80.95-0.80Q79.10 0.40 77.60 0.40L77.60 0.40L77.60 0.40Q77.20 0.40 76.85 0.30L76.85 0.30L76.85 0.30Q74.90-0.10 74.90-1.88L74.90-1.88L74.90-1.88Q74.90-3.65 76.30-5.85L76.30-5.85L76.30-5.85Q76.55-6.20 78.15-8.20L78.15-8.20L78.15-8.20Q80.60-11.20 80.60-12.20ZM105.25-7.70L105.25-7.70L105.25-7.70Q104.70-7.05 104.13-6.30L104.13-6.30L104.13-6.30Q103.55-5.55 102.67-4.25L102.67-4.25L102.67-4.25Q101.80-2.95 101.80-2.05L101.80-2.05L101.80-2.05Q101.80-1.15 102.57-1.15L102.57-1.15L102.57-1.15Q103.35-1.15 105.10-2.10L105.10-2.10L105.10-2.10Q108.60-4.10 112.85-8.10L112.85-8.10L112.85-8.10Q113.35-8.60 113.50-8.25L113.50-8.25L113.50-8.25Q113.50-8.20 113.50-8.05L113.50-8.05L113.50-8.05Q113.50-7.90 113.30-7.70L113.30-7.70L113.30-7.70Q104.70 0.40 100.80 0.40L100.80 0.40L100.80 0.40Q99.65 0.40 98.88-0.38L98.88-0.38L98.88-0.38Q98.10-1.15 98.10-2.20L98.10-2.20L98.10-2.20Q98.10-3.25 99-5.40L99-5.40L99-5.40Q96.75-2.60 94.17-1.07L94.17-1.07L94.17-1.07Q91.60 0.45 90.15 0.45L90.15 0.45L90.15 0.45Q88.70 0.45 87.67-0.43L87.67-0.43L87.67-0.43Q86.65-1.30 86.65-2.60L86.65-2.60L86.65-2.60Q86.65-6.30 89.95-9.85L89.95-9.85L89.95-9.85Q92.45-12.50 96.15-13.60L96.15-13.60L96.15-13.60Q97.80-14.15 99.38-14.15L99.38-14.15L99.38-14.15Q100.95-14.15 102.42-13.28L102.42-13.28L102.42-13.28Q103.90-12.40 104.30-11.20L104.30-11.20L104.30-11.20Q105.80-11.20 106.45-10.10L106.45-10.10L106.45-10.10Q106.55-9.95 106.55-9.60L106.55-9.60L106.55-9.60Q106.55-9.25 106.17-8.80L106.17-8.80L106.17-8.80Q105.80-8.35 105.25-7.70ZM101.60-12.65L101.60-12.65L101.60-12.65Q100.55-12.65 99.10-12L99.10-12L99.10-12Q96.55-10.90 94.25-8.20L94.25-8.20L94.25-8.20Q90.60-3.90 90.60-1.90L90.60-1.90L90.60-1.90Q90.60-0.85 91.45-0.85L91.45-0.85L91.45-0.85Q92.15-0.85 93.77-1.75L93.77-1.75L93.77-1.75Q95.40-2.65 98.05-5.30L98.05-5.30L98.05-5.30Q98.20-5.45 99.20-6.40L99.20-6.40L99.20-6.40Q100.20-7.35 100.90-8.05L100.90-8.05L100.90-8.05Q103.25-10.50 103.25-11.58L103.25-11.58L103.25-11.58Q103.25-12.65 101.60-12.65ZM162.65-28.80L162.65-28.80L162.65-28.80Q162.25-29.45 161.25-29.45L161.25-29.45L161.25-29.45Q160.25-29.45 159.38-29.20L159.38-29.20L159.38-29.20Q158.50-28.95 157.30-28.50L157.30-28.50L157.30-28.50Q155.35-27.70 154.15-27L154.15-27L154.15-27Q149.65-24.60 145.75-21.38L145.75-21.38L145.75-21.38Q141.85-18.15 141.65-16.55L141.65-16.55L141.65-16.55Q141.55-15.30 143-14.50L143-14.50L143-14.50Q144.25-13.75 145.90-13.08L145.90-13.08L145.90-13.08Q147.55-12.40 148.30-12.05L148.30-12.05L148.30-12.05Q152.30-10.05 152.30-6.75L152.30-6.75L152.30-6.75Q152.30-5.30 151.45-3.95L151.45-3.95L151.45-3.95Q150.10-1.85 147.38-0.48L147.38-0.48L147.38-0.48Q144.65 0.90 141.55 1.45L141.55 1.45L141.55 1.45Q138.35 2 136.25 2L136.25 2L136.25 2Q132.45 2 128.65 0.38L128.65 0.38L128.65 0.38Q124.85-1.25 123.95-4.70L123.95-4.70L123.95-4.70Q125.80-3.05 129.05-2.35L129.05-2.35L129.05-2.35Q132.30-1.65 135.25-1.65L135.25-1.65L135.25-1.65Q139.65-1.70 141.78-2.35L141.78-2.35L141.78-2.35Q143.90-3 145.47-3.88L145.47-3.88L145.47-3.88Q147.05-4.75 148.38-5.93L148.38-5.93L148.38-5.93Q149.70-7.10 149.70-8.53L149.70-8.53L149.70-8.53Q149.70-9.95 147.80-11.10L147.80-11.10L147.80-11.10Q147.65-11.20 144.78-12.35L144.78-12.35L144.78-12.35Q141.90-13.50 140.38-14.90L140.38-14.90L140.38-14.90Q138.85-16.30 138.85-18.10L138.85-18.10L138.85-18.10Q138.85-21.50 143.05-25.03L143.05-25.03L143.05-25.03Q147.25-28.55 152.22-30.50L152.22-30.50L152.22-30.50Q157.20-32.45 160.70-32.45L160.70-32.45L160.70-32.45Q163.15-32.45 164.50-31.58L164.50-31.58L164.50-31.58Q165.85-30.70 165.85-29.15L165.85-29.15L165.85-29.15Q165.85-28.95 165.85-28.70L165.85-28.70L165.85-28.70Q165.70-27.15 160.40-22.25L160.40-22.25L160.40-22.25Q158.45-20.45 156.97-18.23L156.97-18.23L156.97-18.23Q155.50-16 155.50-14.30L155.50-14.30L155.50-14.30Q155.50-14.15 155.50-14L155.50-14L155.50-14Q153.95-15.20 153.95-17.20L153.95-17.20L153.95-17.20Q153.95-19 155.50-21.60L155.50-21.60L155.50-21.60Q157.75-25.40 162.65-28.80ZM167.60-12.20L167.60-12.20L167.60-12.20Q167.60-12.85 166.65-12.85L166.65-12.85L166.65-12.85Q164.95-12.85 162.50-10.45L162.50-10.45L162.50-10.45Q161.90-9.85 160.32-7.95L160.32-7.95L160.32-7.95Q158.75-6.05 157.25-3.60L157.25-3.60L156-0.85L156.15-1.35L156.15-1.35Q156.05-1.15 155.95-0.75L155.95-0.75L155.95-0.75L155.95-0.75Q155.70-0.15 154.50 0.25L154.50 0.25L154.50 0.25Q154.25 0.35 154.05 0.35L154.05 0.35L154.05 0.35Q153.55 0.35 153.95-0.40L153.95-0.40L153.95-0.40Q154.15-0.90 155.35-3.98L155.35-3.98L155.35-3.98Q156.55-7.05 157.30-8.90L157.30-8.90L157.30-8.90Q155.35-6.75 153.65-5.40L153.65-5.40L153.65-5.40Q153.15-5 152.95-5.30L152.95-5.30L152.95-5.30Q152.90-5.35 152.90-5.50L152.90-5.50L152.90-5.50Q152.90-5.65 153.35-6.05L153.35-6.05L153.35-6.05Q156.40-8.70 158.15-10.95L158.15-10.95L158.15-10.95Q159.45-14 162.92-19.43L162.92-19.43L162.92-19.43Q166.40-24.85 170.05-28.40L170.05-28.40L170.05-28.40Q172.50-30.85 175.35-31.70L175.35-31.70L175.35-31.70Q176.65-32.10 177.78-32.10L177.78-32.10L177.78-32.10Q178.90-32.10 179.88-31.48L179.88-31.48L179.88-31.48Q180.85-30.85 180.85-29.15L180.85-29.15L180.85-29.15Q180.85-26.90 179.35-24.60L179.35-24.60L179.35-24.60Q177.85-22.30 174.05-19.48L174.05-19.48L174.05-19.48Q170.25-16.65 167-15.25L167-15.25L167-15.25Q166.40-15 166.30-15.33L166.30-15.33L166.30-15.33Q166.20-15.65 166.80-15.90L166.80-15.90L166.80-15.90Q169.70-17.20 173.32-20L173.32-20L173.32-20Q176.95-22.80 178.18-24.78L178.18-24.78L178.18-24.78Q179.40-26.75 179.40-27.98L179.40-27.98L179.40-27.98Q179.40-29.20 178.35-29.20L178.35-29.20L178.35-29.20Q177.15-29.20 174.55-27.20L174.55-27.20L174.55-27.20Q170.70-24.10 166.47-18.55L166.47-18.55L166.47-18.55Q162.25-13 159.20-7.35L159.20-7.35L159.20-7.35Q160.60-9.35 161.75-10.65L161.75-10.65L161.75-10.65Q164.55-13.80 167.20-13.80L167.20-13.80L167.20-13.80Q169.70-13.80 170.15-11.60L170.15-11.60L170.15-11.60Q170.20-11.30 170.20-10.75L170.20-10.75L170.20-10.75Q170.20-10.20 169.82-9.13L169.82-9.13L169.82-9.13Q169.45-8.05 167.72-5.18L167.72-5.18L167.72-5.18Q166-2.30 166-1.70L166-1.70L166-1.70Q166-1.10 166.40-1.10L166.40-1.10L166.40-1.10Q166.95-1.10 168.05-1.80L168.05-1.80L168.05-1.80Q170.85-3.55 175.35-7.70L175.35-7.70L175.35-7.70Q175.95-8.30 175.93-7.90L175.93-7.90L175.93-7.90Q175.90-7.50 175.60-7.15L175.60-7.15L175.60-7.15Q171.90-3.35 167.95-0.80L167.95-0.80L167.95-0.80Q166.10 0.40 164.60 0.40L164.60 0.40L164.60 0.40Q164.20 0.40 163.85 0.30L163.85 0.30L163.85 0.30Q161.90-0.10 161.90-1.88L161.90-1.88L161.90-1.88Q161.90-3.65 163.30-5.85L163.30-5.85L163.30-5.85Q163.55-6.20 165.15-8.20L165.15-8.20L165.15-8.20Q167.60-11.20 167.60-12.20ZM192.25-7.70L192.25-7.70L192.25-7.70Q191.70-7.05 191.13-6.30L191.13-6.30L191.13-6.30Q190.55-5.55 189.68-4.25L189.68-4.25L189.68-4.25Q188.80-2.95 188.80-2.05L188.80-2.05L188.80-2.05Q188.80-1.15 189.58-1.15L189.58-1.15L189.58-1.15Q190.35-1.15 192.10-2.10L192.10-2.10L192.10-2.10Q195.60-4.10 199.85-8.10L199.85-8.10L199.85-8.10Q200.35-8.60 200.50-8.25L200.50-8.25L200.50-8.25Q200.50-8.20 200.50-8.05L200.50-8.05L200.50-8.05Q200.50-7.90 200.30-7.70L200.30-7.70L200.30-7.70Q191.70 0.40 187.80 0.40L187.80 0.40L187.80 0.40Q186.65 0.40 185.88-0.38L185.88-0.38L185.88-0.38Q185.10-1.15 185.10-2.20L185.10-2.20L185.10-2.20Q185.10-3.25 186-5.40L186-5.40L186-5.40Q183.75-2.60 181.18-1.07L181.18-1.07L181.18-1.07Q178.60 0.45 177.15 0.45L177.15 0.45L177.15 0.45Q175.70 0.45 174.68-0.43L174.68-0.43L174.68-0.43Q173.65-1.30 173.65-2.60L173.65-2.60L173.65-2.60Q173.65-6.30 176.95-9.85L176.95-9.85L176.95-9.85Q179.45-12.50 183.15-13.60L183.15-13.60L183.15-13.60Q184.80-14.15 186.38-14.15L186.38-14.15L186.38-14.15Q187.95-14.15 189.43-13.28L189.43-13.28L189.43-13.28Q190.90-12.40 191.30-11.20L191.30-11.20L191.30-11.20Q192.80-11.20 193.45-10.10L193.45-10.10L193.45-10.10Q193.55-9.95 193.55-9.60L193.55-9.60L193.55-9.60Q193.55-9.25 193.18-8.80L193.18-8.80L193.18-8.80Q192.80-8.35 192.25-7.70ZM188.60-12.65L188.60-12.65L188.60-12.65Q187.55-12.65 186.10-12L186.10-12L186.10-12Q183.55-10.90 181.25-8.20L181.25-8.20L181.25-8.20Q177.60-3.90 177.60-1.90L177.60-1.90L177.60-1.90Q177.60-0.85 178.45-0.85L178.45-0.85L178.45-0.85Q179.15-0.85 180.78-1.75L180.78-1.75L180.78-1.75Q182.40-2.65 185.05-5.30L185.05-5.30L185.05-5.30Q185.20-5.45 186.20-6.40L186.20-6.40L186.20-6.40Q187.20-7.35 187.90-8.05L187.90-8.05L187.90-8.05Q190.25-10.50 190.25-11.58L190.25-11.58L190.25-11.58Q190.25-12.65 188.60-12.65ZM211.75-10L211.75-10L211.75-10Q209.55-7.45 208.18-5.33L208.18-5.33L208.18-5.33Q206.80-3.20 206.80-2.33L206.80-2.33L206.80-2.33Q206.80-1.45 207.82-1.45L207.82-1.45L207.82-1.45Q208.85-1.45 212.03-3.50L212.03-3.50L212.03-3.50Q215.20-5.55 217.90-8.10L217.90-8.10L217.90-8.10Q218.15-8.35 218.35-8.30L218.35-8.30L218.35-8.30Q218.55-8.25 218.55-8.05L218.55-8.05L218.55-8.05Q218.55-7.85 218.35-7.60L218.35-7.60L218.35-7.60Q211.90-1.70 208.50-0.20L208.50-0.20L208.50-0.20Q207 0.40 206.35 0.40L206.35 0.40L206.35 0.40Q203.95 0.40 203.07-0.40L203.07-0.40L203.07-0.40Q202.20-1.20 202.20-2.15L202.20-2.15L202.20-2.15Q202.20-4.05 202.95-5.05L202.95-5.05L202.95-5.05Q205.40-8.50 206.85-10.90L206.85-10.90L206.85-10.90Q207.30-11.60 206.68-11.88L206.68-11.88L206.68-11.88Q206.05-12.15 205.13-12.15L205.13-12.15L205.13-12.15Q204.20-12.15 204.15-12.20L204.15-12.20L204.15-12.20Q200.80-7.70 197.50-5.10L197.50-5.10L197.50-5.10Q197.10-4.75 197.05-5.10L197.05-5.10L197.05-5.10Q197.05-5.50 197.60-6.05L197.60-6.05L197.60-6.05Q201.10-9.05 203.35-12.40L203.35-12.40L203.35-12.40Q202.90-12.70 202.90-13.23L202.90-13.23L202.90-13.23Q202.90-13.75 202.97-14.50L202.97-14.50L202.97-14.50Q203.05-15.25 203.75-16.50L203.75-16.50L203.75-16.50Q204.95-18.60 206.25-18.60L206.25-18.60L206.25-18.60Q207.35-18.60 207.35-17.40L207.35-17.40L207.35-17.40Q207.35-15.75 205.80-13.80L205.80-13.80L205.80-13.80Q205.05-12.90 204.40-12.50L204.40-12.50L204.40-12.50Q206.25-13.10 209.80-13.10L209.80-13.10L209.80-13.10Q211.55-13.10 212.30-11.80L212.30-11.80L212.30-11.80Q212.40-11.60 212.40-11.20L212.40-11.20L212.40-11.20Q212.40-10.80 211.75-10ZM239.35-11.15L239.35-11.15L239.35-11.15Q239.35-9.30 236.20-5.05L236.20-5.05L236.20-5.05Q234.30-2.50 234.30-1.90L234.30-1.90L234.30-1.90Q234.30-1.30 234.93-1.30L234.93-1.30L234.93-1.30Q235.55-1.30 236.70-2.05L236.70-2.05L236.70-2.05Q239.55-4 242.40-6.75L242.40-6.75L242.40-6.75Q242.80-7.15 242.95-6.95L242.95-6.95L242.95-6.95Q243.10-6.75 243.10-6.65L243.10-6.65L243.10-6.65Q243.10-6.55 242-5.50L242-5.50L242-5.50Q240.90-4.45 239.58-3.30L239.58-3.30L239.58-3.30Q238.25-2.15 236.25-0.93L236.25-0.93L236.25-0.93Q234.25 0.30 232.95 0.30L232.95 0.30L232.95 0.30Q230.25 0.30 230.25-2.10L230.25-2.10L230.25-2.10Q230.25-2.95 230.55-4.10L230.55-4.10L230.55-4.10Q231.20-6.05 236.20-11.65L236.20-11.65L236.20-11.65Q236.85-12.35 236.85-12.75L236.85-12.75L236.85-12.75Q236.85-13.15 235.85-13.15L235.85-13.15L235.85-13.15Q234.85-13.15 232.70-11.40L232.70-11.40L232.70-11.40Q231.95-10.80 230.85-9.63L230.85-9.63L230.85-9.63Q229.75-8.45 228.28-5.85L228.28-5.85L228.28-5.85Q226.80-3.25 226.10-1.25L226.10-1.25L226.10-1.25Q225.80-0.35 224.90-0.35L224.90-0.35L224.90-0.35Q224.70-0.35 224.40-0.40L224.40-0.40L224.40-0.40Q223.45-0.65 223.65-1.30L223.65-1.30L223.65-1.30Q227.55-8.25 228.30-10L228.30-10L228.30-10Q229.05-11.75 229.05-12.50L229.05-12.50L229.05-12.50Q229.05-13.25 228.45-13.25L228.45-13.25L228.45-13.25Q225.80-13.25 220.85-4.60L220.85-4.60L220.85-4.60Q219.05-1.80 217.95-0.60L217.95-0.60L217.95-0.60Q216.85 0.60 215.95 0.60L215.95 0.60L215.95 0.60Q215.85 0.60 215.75 0.60L215.75 0.60L215.75 0.60Q214.45 0.60 213.20-0.45L213.20-0.45L213.20-0.45Q213.50-0.90 214.65-2.40L214.65-2.40L214.65-2.40Q217.20-5.50 219.10-8.40L219.10-8.40L219.10-8.40Q216.95-6.25 215.45-5.05L215.45-5.05L215.45-5.05Q214.95-4.65 214.88-5L214.88-5L214.88-5Q214.80-5.35 215.10-5.63L215.10-5.63L215.10-5.63Q215.40-5.90 216.10-6.53L216.10-6.53L216.10-6.53Q216.80-7.15 217.03-7.35L217.03-7.35L217.03-7.35Q217.25-7.55 217.88-8.13L217.88-8.13L217.88-8.13Q218.50-8.70 218.80-9.05L218.80-9.05L218.80-9.05Q220.20-10.70 220.85-11.85L220.85-11.85L220.85-11.85Q221.10-12.45 221.08-13.03L221.08-13.03L221.08-13.03Q221.05-13.60 220.83-13.78L220.83-13.78L220.83-13.78Q220.60-13.95 220.65-14.20L220.65-14.20L220.65-14.20Q220.65-14.60 221.05-14.60L221.05-14.60L221.05-14.60Q221.25-14.60 221.50-14.50L221.50-14.50L221.50-14.50Q223.05-13.80 223.05-11.45L223.05-11.45L223.05-11.45Q223.05-10.05 222.50-8.40L222.50-8.40L222.50-8.40Q223.50-9.95 224.65-11.45L224.65-11.45L224.65-11.45Q226.70-14.10 228.75-14.10L228.75-14.10L228.75-14.10Q230.15-14.10 230.15-12.50L230.15-12.50L230.15-12.50Q230.15-11 228.05-7.15L228.05-7.15L228.05-7.15Q230.15-9.85 231.30-11.10L231.30-11.10L231.30-11.10Q233.95-13.85 236.40-13.85L236.40-13.85L236.40-13.85Q239-13.85 239.35-11.60L239.35-11.60L239.35-11.60Q239.35-11.35 239.35-11.15ZM260.30-7.70L260.30-7.70L260.30-7.70Q259.75-7.05 259.18-6.30L259.18-6.30L259.18-6.30Q258.60-5.55 257.73-4.25L257.73-4.25L257.73-4.25Q256.85-2.95 256.85-2.05L256.85-2.05L256.85-2.05Q256.85-1.15 257.63-1.15L257.63-1.15L257.63-1.15Q258.40-1.15 260.15-2.10L260.15-2.10L260.15-2.10Q263.65-4.10 267.90-8.10L267.90-8.10L267.90-8.10Q268.40-8.60 268.55-8.25L268.55-8.25L268.55-8.25Q268.55-8.20 268.55-8.05L268.55-8.05L268.55-8.05Q268.55-7.90 268.35-7.70L268.35-7.70L268.35-7.70Q259.75 0.40 255.85 0.40L255.85 0.40L255.85 0.40Q254.70 0.40 253.93-0.38L253.93-0.38L253.93-0.38Q253.15-1.15 253.15-2.20L253.15-2.20L253.15-2.20Q253.15-3.25 254.05-5.40L254.05-5.40L254.05-5.40Q251.80-2.60 249.23-1.07L249.23-1.07L249.23-1.07Q246.65 0.45 245.20 0.45L245.20 0.45L245.20 0.45Q243.75 0.45 242.73-0.43L242.73-0.43L242.73-0.43Q241.70-1.30 241.70-2.60L241.70-2.60L241.70-2.60Q241.70-6.30 245.00-9.85L245.00-9.85L245.00-9.85Q247.50-12.50 251.20-13.60L251.20-13.60L251.20-13.60Q252.85-14.15 254.43-14.15L254.43-14.15L254.43-14.15Q256-14.15 257.48-13.28L257.48-13.28L257.48-13.28Q258.95-12.40 259.35-11.20L259.35-11.20L259.35-11.20Q260.85-11.20 261.50-10.10L261.50-10.10L261.50-10.10Q261.60-9.95 261.60-9.60L261.60-9.60L261.60-9.60Q261.60-9.25 261.23-8.80L261.23-8.80L261.23-8.80Q260.85-8.35 260.30-7.70ZM256.65-12.65L256.65-12.65L256.65-12.65Q255.60-12.65 254.15-12L254.15-12L254.15-12Q251.60-10.90 249.30-8.20L249.30-8.20L249.30-8.20Q245.65-3.90 245.65-1.90L245.65-1.90L245.65-1.90Q245.65-0.85 246.50-0.85L246.50-0.85L246.50-0.85Q247.20-0.85 248.83-1.75L248.83-1.75L248.83-1.75Q250.45-2.65 253.10-5.30L253.10-5.30L253.10-5.30Q253.25-5.45 254.25-6.40L254.25-6.40L254.25-6.40Q255.25-7.35 255.95-8.05L255.95-8.05L255.95-8.05Q258.30-10.50 258.30-11.58L258.30-11.58L258.30-11.58Q258.30-12.65 256.65-12.65Z" fill="#ff9bc2"></path></g></g><style>text {
  font-size: 64px;
  font-family: Arial Black;
  dominant-baseline: central;
  text-anchor: middle;
}</style></svg>