<svg stroke="currentColor" fill="currentColor" width="40" height="40" viewBox="0 0 40 40" fill="none" xmlns="http://www.w3.org/2000/svg">
    <path fill-rule="evenodd" clip-rule="evenodd" d="M11.353 16.9913L11.3533 17.1224C15.0845 17.5501 17.9924 20.7343 17.9924 24.5869V31.4861C17.9924 35.6293 14.6296 39 10.4962 39C6.36278 39 3 35.6293 3 31.4861V24.5869C3 20.7354 5.90615 17.5521 9.63573 17.123L9.63547 16.9931C9.63547 15.3701 10.9459 14.0499 12.5609 14.0393L15.1766 13.9284C15.1888 13.9278 15.2009 13.9276 15.213 13.9276C15.8025 13.9276 16.2823 13.4467 16.2823 12.8557C16.2823 12.2646 15.8025 11.7838 15.213 11.7838H9.36821C7.83153 11.7838 6.58126 10.5306 6.58126 8.9902C6.58126 8.23912 6.87584 7.53494 7.41071 7.00707C7.9394 6.48531 8.63864 6.20321 9.37431 6.21337L14.4822 6.2132C15.4424 6.21311 16.2237 5.43 16.2237 4.4674C16.2237 3.50481 15.4424 2.72169 14.4821 2.72169H8.66467C8.19043 2.72169 7.80585 2.33629 7.80585 1.86085C7.80585 1.3854 8.19043 1 8.66467 1H14.4821C16.3895 1 17.9413 2.55546 17.9413 4.4674C17.9413 6.37934 16.3896 7.93489 14.4822 7.93489L9.36821 7.93507L9.33815 7.93481C9.06762 7.93481 8.81152 8.04069 8.61563 8.23412C8.4114 8.43565 8.2989 8.70414 8.2989 8.99012C8.2989 9.58118 8.77863 10.062 9.36821 10.062H15.2131C16.7497 10.062 18 11.3152 18 12.8556C18 14.3893 16.7605 15.6383 15.2329 15.6491L12.6169 15.7601C12.6048 15.7606 12.5927 15.7608 12.5806 15.7608C11.9038 15.7608 11.3531 16.3128 11.353 16.9913ZM9.63736 18.8585C6.85677 19.2755 4.71763 21.6855 4.71763 24.5869V25.8798H9.63736V18.8585ZM10.4962 37.2783C13.6825 37.2783 16.2747 34.6799 16.2747 31.4861V27.6015H4.71763V31.4861C4.71763 34.6799 7.30988 37.2783 10.4962 37.2783ZM11.355 25.8798H16.2747V24.5869C16.2747 21.6855 14.1356 19.2755 11.355 18.8585V25.8798ZM34.9159 5.78988C35.796 6.60536 36.8912 7.62027 36.993 9.67085C37.0781 11.3848 36.3812 12.9984 35.1318 14.0923C35.6732 14.7922 35.9939 15.6534 35.9938 16.5844C35.9938 17.4078 35.7484 18.1779 35.3189 18.8304V35.2515C35.3189 37.3185 33.5359 39 31.3445 39C29.1531 39 27.3702 37.3185 27.3702 35.2515V18.2692C27.1352 17.752 27.0061 17.1822 27.0061 16.5844C27.0061 15.6421 27.3342 14.771 27.8877 14.0664C26.7676 13.082 26.0815 11.6824 26.0056 10.1561C25.9043 8.11499 27.1921 6.01461 28.2903 4.61195C29.4864 3.08433 31.0338 1.6848 32.0533 1.20875C32.8402 0.841427 33.3369 1.02687 33.6153 1.24708C33.839 1.42409 34.1774 1.83904 33.9317 2.62932C33.389 4.37486 33.9637 4.90748 34.9158 5.78985L34.9159 5.78988ZM31.3446 37.2619C32.52 37.2619 33.4762 36.3601 33.4761 35.2515V20.3952C33.1806 20.5302 32.8656 20.6361 32.5349 20.7089C32.5185 20.7126 32.502 20.7159 32.4856 20.7194C32.4782 20.7209 32.4709 20.7224 32.4635 20.724C32.4329 20.7304 32.4022 20.7368 32.3712 20.7425C32.3111 20.7537 32.2506 20.764 32.1899 20.7728C32.1435 20.7796 32.0965 20.783 32.0494 20.783H30.9506C30.9036 20.783 30.8566 20.7796 30.81 20.7728C30.2295 20.6883 29.6915 20.503 29.213 20.2386V35.2515C29.213 36.3601 30.1692 37.2619 31.3446 37.2619ZM32.7339 18.7959C32.7377 18.794 32.7414 18.7921 32.7454 18.7903C33.5852 18.3638 34.1513 17.5213 34.1513 16.5845C34.1513 15.7864 33.7524 15.075 33.1332 14.6169C33.1059 14.5966 33.0783 14.577 33.0504 14.5579C33.0104 14.5306 32.9696 14.5044 32.9279 14.4792C32.9054 14.4656 32.883 14.452 32.8601 14.4391C32.7569 14.3807 32.6493 14.3285 32.5376 14.2836C32.5283 14.2799 32.5188 14.2764 32.5094 14.2728C32.4458 14.248 32.3808 14.2255 32.3147 14.2053C32.2953 14.1994 32.2758 14.1937 32.2562 14.1882C32.2092 14.175 32.1616 14.1631 32.1135 14.1523C32.0769 14.1441 32.0402 14.1363 32.0031 14.1297C31.9772 14.125 31.9514 14.1206 31.9253 14.1166C31.8675 14.1079 31.8093 14.1006 31.7505 14.0955C31.74 14.0945 31.7294 14.0939 31.7189 14.0932C31.7136 14.0928 31.7083 14.0925 31.703 14.0921C31.6359 14.0874 31.5685 14.084 31.5003 14.084C31.4332 14.084 31.3666 14.0872 31.3004 14.0918C31.2958 14.0922 31.2912 14.0925 31.2866 14.0928C31.2752 14.0935 31.2639 14.0943 31.2526 14.0953C31.1939 14.1003 31.1358 14.1075 31.0781 14.1161C31.0529 14.1199 31.028 14.1242 31.003 14.1288C30.9662 14.1353 30.9297 14.1428 30.8934 14.1508C30.8458 14.1614 30.7987 14.1731 30.7522 14.186C30.7307 14.1919 30.7094 14.198 30.6881 14.2044C30.6194 14.2254 30.5519 14.2487 30.4857 14.2747C30.483 14.2757 30.4802 14.2767 30.4775 14.2778C30.4739 14.2791 30.4704 14.2804 30.4668 14.2818C30.4288 14.2971 30.3911 14.3132 30.354 14.33C30.3502 14.3317 30.3464 14.3336 30.3427 14.3354C30.3402 14.3366 30.3377 14.3378 30.3352 14.339C30.271 14.3687 30.2085 14.4008 30.1474 14.4352C30.1278 14.4462 30.1083 14.4577 30.089 14.4692C30.0448 14.4956 30.0014 14.5231 29.9591 14.5518C29.9343 14.5686 29.9097 14.5857 29.8854 14.6033C29.2559 15.0609 28.8491 15.7786 28.8491 16.5845C28.8491 17.6609 29.5968 18.6126 30.6481 18.9518C30.653 18.9534 30.6579 18.955 30.6628 18.9566C30.6741 18.9603 30.6853 18.964 30.6967 18.9674C30.7152 18.973 30.7339 18.9781 30.7526 18.9832L30.7619 18.9858C30.7877 18.9929 30.8136 18.9996 30.8397 19.006L30.8427 19.0067C30.8591 19.0107 30.8755 19.0147 30.892 19.0184C30.9357 19.0281 30.9797 19.0372 31.0242 19.0447L31.0269 19.0452H31.9735C32.0142 19.0383 32.0546 19.0304 32.0949 19.0216C32.0998 19.0205 32.1046 19.0194 32.1094 19.0182C32.1133 19.0172 32.1173 19.0162 32.1213 19.0153C32.1526 19.0082 32.1838 19.0008 32.2148 18.9926C32.2256 18.9896 32.2363 18.9864 32.2471 18.9834C32.2755 18.9755 32.3038 18.9673 32.3319 18.9585C32.3406 18.9558 32.3492 18.9529 32.3578 18.95C32.362 18.9486 32.3663 18.9471 32.3706 18.9457C32.3955 18.9375 32.4203 18.9291 32.4449 18.9202C32.4575 18.9156 32.47 18.9108 32.4825 18.906L32.4933 18.9018C32.5061 18.8969 32.5188 18.892 32.5316 18.8869C32.5386 18.8841 32.5456 18.8813 32.5525 18.8784C32.5734 18.8698 32.5941 18.8609 32.6147 18.8518C32.6277 18.8461 32.6406 18.8403 32.6534 18.8344C32.6805 18.8219 32.7073 18.8092 32.7339 18.7959ZM33.7252 12.9032C33.7362 12.9086 33.7473 12.9141 33.7581 12.92C34.6898 12.1725 35.2145 11.0043 35.1523 9.75211C35.0843 8.38232 34.4079 7.75551 33.6245 7.02965L33.6245 7.0296C32.7719 6.23959 31.7471 5.28986 31.8999 3.4334C31.3603 3.87755 30.6785 4.53113 29.9708 5.39683C28.5588 7.12398 27.7845 8.82905 27.8464 10.0749C27.9024 11.2015 28.4253 12.2235 29.2726 12.9035C29.2811 12.8989 29.2898 12.8947 29.2985 12.8905C29.3061 12.8869 29.3136 12.8833 29.321 12.8794C29.3756 12.8507 29.4309 12.8233 29.4869 12.7968C29.4947 12.7931 29.5025 12.7893 29.5103 12.7854C29.52 12.7806 29.5298 12.7758 29.5397 12.7713C29.6215 12.7337 29.7048 12.6989 29.7892 12.666L29.8094 12.6584C29.8903 12.6273 29.9725 12.5986 30.0556 12.5719L30.0778 12.5648C30.3402 12.482 30.6131 12.4214 30.8944 12.3855C30.9083 12.3837 30.9222 12.3821 30.9362 12.3804L30.9454 12.3794C31.018 12.3708 31.0912 12.3641 31.1648 12.3589C31.1731 12.3584 31.1813 12.3577 31.1896 12.3571C31.2028 12.3561 31.2159 12.3551 31.2291 12.3543C31.3188 12.3493 31.409 12.3459 31.5001 12.3459C31.592 12.3459 31.6831 12.3494 31.7738 12.3545C31.796 12.3558 31.8181 12.3577 31.8403 12.3593C31.9147 12.3645 31.9885 12.3715 32.0618 12.3801C32.0677 12.3809 32.0736 12.3815 32.0795 12.3822C32.091 12.3836 32.1024 12.3849 32.1139 12.3864C32.3038 12.411 32.4898 12.4465 32.6714 12.4929L32.6726 12.4932C32.7623 12.5161 32.8507 12.5419 32.9381 12.5698L32.967 12.5791C33.1415 12.6361 33.3113 12.7025 33.4754 12.7785C33.4926 12.7864 33.5096 12.7948 33.5265 12.8031C33.5347 12.8071 33.5428 12.8111 33.551 12.815C33.6002 12.8389 33.649 12.8635 33.6971 12.889C33.7063 12.894 33.7158 12.8986 33.7252 12.9032Z"/>
</svg>
