<svg stroke="currentColor" fill="currentColor" width="40" height="40" viewBox="0 0 40 40" fill="none" xmlns="http://www.w3.org/2000/svg">
<path fill-rule="evenodd" clip-rule="evenodd" d="M11.353 16.9913L11.3533 17.1224C15.0845 17.5501 17.9924 20.7343 17.9924 24.5869V31.4861C17.9924 35.6293 14.6296 39 10.4962 39C6.36278 39 3 35.6293 3 31.4861V24.5869C3 20.7354 5.90615 17.5521 9.63573 17.123L9.63547 16.9931C9.63547 15.3701 10.9459 14.0499 12.5609 14.0393L15.1766 13.9284C15.1888 13.9278 15.2009 13.9276 15.213 13.9276C15.8025 13.9276 16.2823 13.4467 16.2823 12.8557C16.2823 12.2646 15.8025 11.7838 15.213 11.7838H9.36821C7.83153 11.7838 6.58126 10.5306 6.58126 8.9902C6.58126 8.23912 6.87584 7.53494 7.41071 7.00707C7.9394 6.48531 8.63864 6.20321 9.37431 6.21337L14.4822 6.2132C15.4424 6.21311 16.2237 5.43 16.2237 4.4674C16.2237 3.50481 15.4424 2.72169 14.4821 2.72169H8.66467C8.19043 2.72169 7.80585 2.33629 7.80585 1.86085C7.80585 1.3854 8.19043 1 8.66467 1H14.4821C16.3895 1 17.9413 2.55546 17.9413 4.4674C17.9413 6.37934 16.3896 7.93489 14.4822 7.93489L9.36821 7.93507L9.33815 7.93481C9.06762 7.93481 8.81152 8.04069 8.61563 8.23412C8.4114 8.43565 8.2989 8.70414 8.2989 8.99012C8.2989 9.58118 8.77863 10.062 9.36821 10.062H15.2131C16.7497 10.062 18 11.3152 18 12.8556C18 14.3893 16.7605 15.6383 15.2329 15.6491L12.6169 15.7601C12.6048 15.7606 12.5927 15.7608 12.5806 15.7608C11.9038 15.7608 11.3531 16.3128 11.353 16.9913ZM9.63736 18.8585C6.85677 19.2755 4.71763 21.6855 4.71763 24.5869V25.8798H9.63736V18.8585ZM10.4962 37.2783C13.6825 37.2783 16.2747 34.6799 16.2747 31.4861V27.6015H4.71763V31.4861C4.71763 34.6799 7.30988 37.2783 10.4962 37.2783ZM11.355 25.8798H16.2747V24.5869C16.2747 21.6855 14.1356 19.2755 11.355 18.8585V25.8798ZM34.9159 5.78988C35.796 6.60536 36.8912 7.62027 36.993 9.67085C37.0781 11.3848 36.3812 12.9984 35.1318 14.0923C35.6732 14.7922 35.9939 15.6534 35.9938 16.5844C35.9938 17.4078 35.7484 18.1779 35.3189 18.8304V35.2515C35.3189 37.3185 33.5359 39 31.3445 39C29.1531 39 27.3702 37.3185 27.3702 35.2515V18.2692C27.1352 17.752 27.0061 17.1822 27.0061 16.5844C27.0061 15.6421 27.3342 14.771 27.8877 14.0664C26.7676 13.082 26.0815 11.6824 26.0056 10.1561C25.9043 8.11499 27.1921 6.01461 28.2903 4.61195C29.4864 3.08433 31.0338 1.6848 32.0533 1.20875C32.8402 0.841427 33.3369 1.02687 33.6153 1.24708C33.839 1.42409 34.1774 1.83904 33.9317 2.62932C33.389 4.37486 33.9637 4.90748 34.9158 5.78985L34.9159 5.78988ZM31.3446 37.2619C32.52 37.2619 33.4762 36.3601 33.4761 35.2515V20.3952C33.1806 20.5302 32.8656 20.6361 32.5349 20.7089C32.5185 20.7126 32.502 20.7159 32.4856 20.7194C32.4782 20.7209 32.4709 20.7224 32.4635 20.724C32.4329 20.7304 32.4022 20.7368 32.3712 20.7425C32.3111 20.7537 32.2506 20.764 32.1899 20.7728C32.1435 20.7796 32.0965 20.783 32.0494 20.783H30.9506C30.9036 20.783 30.8566 20.7796 30.81 20.7728C30.2295 20.6883 29.6915 20.503 29.213 20.2386V35.2515C29.213 36.3601 30.1692 37.2619 31.3446 37.2619ZM32.7339 18.7959C32.7377 18.794 32.7414 18.7921 32.7454 18.7903C33.5852 18.3638 34.1513 17.5213 34.1513 16.5845C34.1513 15.7864 33.7524 15.075 33.1332 14.6169C33.1059 14.5966 33.0783 14.577 33.0504 14.5579C33.0104 14.5306 32.9696 14.5044 32.9279 14.4792C32.9054 14.4656 32.883 14.452 32.8601 14.4391C32.7569 14.3807 32.6493 14.3285 32.5376 14.2836C32.5283 14.2799 32.5188 14.2764 32.5094 14.2728C32.4458 14.248 32.3808 14.2255 32.3147 14.2053C32.2953 14.1994 32.2758 14.1937 32.2562 14.1882C32.2092 14.175 32.1616 14.1631 32.1135 14.1523C32.0769 14.1441 32.0402 14.1363 32.0031 14.1297C31.9772 14.125 31.9514 14.1206 31.9253 14.1166C31.8675 14.1079 31.8093 14.1006 31.7505 14.0955C31.74 14.0945 31.7294 14.0939 31.7189 14.0932C31.7136 14.0928 31.7083 14.0925 31.703 14.0921C31.6359 14.0874 31.5685 14.084 31.5003 14.084C31.4332 14.084 31.3666 14.0872 31.3004 14.0918C31.2958 14.0922 31.2912 14.0925 31.2866 14.0928C31.2752 14.0935 31.2639 14.0943 31.2526 14.0953C31.1939 14.1003 31.1358 14.1075 31.0781 14.1161C31.0529 14.1199 31.028 14.1242 31.003 14.1288C30.9662 14.1353 30.9297 14.1428 30.8934 14.1508C30.8458 14.1614 30.7987 14.1731 30.7522 14.186C30.7307 14.1919 30.7094 14.198 30.6881 14.2044C30.6194 14.2254 30.5519 14.2487 30.4857 14.2747C30.483 14.2757 30.4802 14.2767 30.4775 14.2778C30.4739 14.2791 30.4704 14.2804 30.4668 14.2818C30.4288 14.2971 30.3911 14.3132 30.354 14.33C30.3502 14.3317 30.3464 14.3336 30.3427 14.3354C30.3402 14.3366 30.3377 14.3378 30.3352 14.339C30.271 14.3687 30.2085 14.4008 30.1474 14.4352C30.1278 14.4462 30.1083 14.4577 30.089 14.4692C30.0448 14.4956 30.0014 14.5231 29.9591 14.5518C29.9343 14.5686 29.9097 14.5857 29.8854 14.6033C29.2559 15.0609 28.8491 15.7786 28.8491 16.5845C28.8491 17.6609 29.5968 18.6126 30.6481 18.9518C30.653 18.9534 30.6579 18.955 30.6628 18.9566C30.6741 18.9603 30.6853 18.964 30.6967 18.9674C30.7152 18.973 30.7339 18.9781 30.7526 18.9832L30.7619 18.9858C30.7877 18.9929 30.8136 18.9996 30.8397 19.006L30.8427 19.0067C30.8591 19.0107 30.8755 19.0147 30.892 19.0184C30.9357 19.0281 30.9797 19.0372 31.0242 19.0447L31.0269 19.0452H31.9735C32.0142 19.0383 32.0546 19.0304 32.0949 19.0216C32.0998 19.0205 32.1046 19.0194 32.1094 19.0182C32.1133 19.0172 32.1173 19.0162 32.1213 19.0153C32.1526 19.0082 32.1838 19.0008 32.2148 18.9926C32.2256 18.9896 32.2363 18.9864 32.2471 18.9834C32.2755 18.9755 32.3038 18.9673 32.3319 18.9585C32.3406 18.9558 32.3492 18.9529 32.3578 18.95C32.362 18.9486 32.3663 18.9471 32.3706 18.9457C32.3955 18.9375 32.4203 18.9291 32.4449 18.9202C32.4575 18.9156 32.47 18.9108 32.4825 18.906L32.4933 18.9018C32.5061 18.8969 32.5188 18.892 32.5316 18.8869C32.5386 18.8841 32.5456 18.8813 32.5525 18.8784C32.5734 18.8698 32.5941 18.8609 32.6147 18.8518C32.6277 18.8461 32.6406 18.8403 32.6534 18.8344C32.6805 18.8219 32.7073 18.8092 32.7339 18.7959ZM33.7252 12.9032C33.7362 12.9086 33.7473 12.9141 33.7581 12.92C34.6898 12.1725 35.2145 11.0043 35.1523 9.75211C35.0843 8.38232 34.4079 7.75551 33.6245 7.02965L33.6245 7.0296C32.7719 6.23959 31.7471 5.28986 31.8999 3.4334C31.3603 3.87755 30.6785 4.53113 29.9708 5.39683C28.5588 7.12398 27.7845 8.82905 27.8464 10.0749C27.9024 11.2015 28.4253 12.2235 29.2726 12.9035C29.2811 12.8989 29.2898 12.8947 29.2985 12.8905C29.3061 12.8869 29.3136 12.8833 29.321 12.8794C29.3756 12.8507 29.4309 12.8233 29.4869 12.7968C29.4947 12.7931 29.5025 12.7893 29.5103 12.7854C29.52 12.7806 29.5298 12.7758 29.5397 12.7713C29.6215 12.7337 29.7048 12.6989 29.7892 12.666L29.8094 12.6584C29.8903 12.6273 29.9725 12.5986 30.0556 12.5719L30.0778 12.5648C30.3402 12.482 30.6131 12.4214 30.8944 12.3855C30.9083 12.3837 30.9222 12.3821 30.9362 12.3804L30.9454 12.3794C31.018 12.3708 31.0912 12.3641 31.1648 12.3589C31.1731 12.3584 31.1813 12.3577 31.1896 12.3571C31.2028 12.3561 31.2159 12.3551 31.2291 12.3543C31.3188 12.3493 31.409 12.3459 31.5001 12.3459C31.592 12.3459 31.6831 12.3494 31.7738 12.3545C31.796 12.3558 31.8181 12.3577 31.8403 12.3593C31.9147 12.3645 31.9885 12.3715 32.0618 12.3801C32.0677 12.3809 32.0736 12.3815 32.0795 12.3822C32.091 12.3836 32.1024 12.3849 32.1139 12.3864C32.3038 12.411 32.4898 12.4465 32.6714 12.4929L32.6726 12.4932C32.7623 12.5161 32.8507 12.5419 32.9381 12.5698L32.967 12.5791C33.1415 12.6361 33.3113 12.7025 33.4754 12.7785C33.4926 12.7864 33.5096 12.7948 33.5265 12.8031C33.5347 12.8071 33.5428 12.8111 33.551 12.815C33.6002 12.8389 33.649 12.8635 33.6971 12.889C33.7063 12.894 33.7158 12.8986 33.7252 12.9032Z" fill="white"/>
<path d="M11.3533 17.1224L10.8533 17.1234L10.8542 17.5685L11.2963 17.6192L11.3533 17.1224ZM11.353 16.9913L10.853 16.9912L10.853 16.9922L11.353 16.9913ZM9.63573 17.123L9.69288 17.6197L10.1366 17.5686L10.1357 17.122L9.63573 17.123ZM9.63547 16.9931L9.13547 16.9931L9.13547 16.9941L9.63547 16.9931ZM12.5609 14.0393L12.5642 14.5393L12.5732 14.5393L12.5821 14.5389L12.5609 14.0393ZM15.1766 13.9284L15.1978 14.4279L15.198 14.4279L15.1766 13.9284ZM7.41071 7.00707L7.0595 6.6512L7.05949 6.6512L7.41071 7.00707ZM9.37431 6.21337L9.3674 6.71337L9.37432 6.71337L9.37431 6.21337ZM14.4822 6.2132L14.4822 6.7132L14.4822 6.7132L14.4822 6.2132ZM14.4822 7.93489L14.4822 7.43489L14.4822 7.43489L14.4822 7.93489ZM9.36821 7.93507L9.3639 8.43507L9.36823 8.43507L9.36821 7.93507ZM9.33815 7.93481L9.34246 7.43481H9.33815V7.93481ZM8.61563 8.23412L8.96682 8.59002L8.96694 8.58991L8.61563 8.23412ZM15.2329 15.6491L15.2294 15.1491L15.2205 15.1492L15.2117 15.1496L15.2329 15.6491ZM12.6169 15.7601L12.5957 15.2605L12.5956 15.2605L12.6169 15.7601ZM9.63736 18.8585H10.1374V18.2779L9.56321 18.364L9.63736 18.8585ZM4.71763 25.8798H4.21763V26.3798H4.71763V25.8798ZM9.63736 25.8798V26.3798H10.1374V25.8798H9.63736ZM16.2747 27.6015H16.7747V27.1015H16.2747V27.6015ZM4.71763 27.6015V27.1015H4.21763V27.6015H4.71763ZM16.2747 25.8798V26.3798H16.7747V25.8798H16.2747ZM11.355 25.8798H10.855V26.3798H11.355V25.8798ZM11.355 18.8585L11.4291 18.364L10.855 18.2779V18.8585H11.355ZM36.993 9.67085L37.4924 9.64608L37.4924 9.64606L36.993 9.67085ZM34.9159 5.78988L34.5757 6.15628L34.576 6.15664L34.9159 5.78988ZM35.1318 14.0923L34.8024 13.716L34.4484 14.026L34.7363 14.3982L35.1318 14.0923ZM35.9938 16.5844L35.4938 16.5843V16.5844H35.9938ZM35.3189 18.8304L34.9012 18.5555L34.8189 18.6806V18.8304H35.3189ZM27.3702 18.2692H27.8702V18.161L27.8254 18.0624L27.3702 18.2692ZM27.8877 14.0664L28.2809 14.3753L28.5732 14.0032L28.2178 13.6908L27.8877 14.0664ZM26.0056 10.1561L25.5062 10.1809L25.5062 10.1809L26.0056 10.1561ZM28.2903 4.61195L27.8966 4.3037L27.8966 4.30371L28.2903 4.61195ZM32.0533 1.20875L31.8418 0.755692L31.8418 0.75571L32.0533 1.20875ZM33.6153 1.24708L33.9255 0.854981L33.9255 0.854949L33.6153 1.24708ZM33.9317 2.62932L33.4542 2.48085L33.4542 2.48088L33.9317 2.62932ZM34.9158 5.78985L35.2561 5.42345L35.2557 5.42311L34.9158 5.78985ZM33.4761 35.2515L32.9761 35.2515L32.9761 35.2515L33.4761 35.2515ZM33.4761 20.3952H33.9761V19.6173L33.2685 19.9404L33.4761 20.3952ZM32.5349 20.7089L32.4274 20.2206L32.4262 20.2209L32.5349 20.7089ZM32.4856 20.7194L32.5873 21.2089L32.5892 21.2085L32.4856 20.7194ZM32.4635 20.724L32.3611 20.2346L32.3611 20.2346L32.4635 20.724ZM32.3712 20.7425L32.2811 20.2507L32.2796 20.2509L32.3712 20.7425ZM32.1899 20.7728L32.2621 21.2676L32.2621 21.2676L32.1899 20.7728ZM30.81 20.7728L30.8821 20.278L30.8821 20.278L30.81 20.7728ZM29.213 20.2386L29.4548 19.801L28.713 19.3912V20.2386H29.213ZM32.7454 18.7903L32.9546 19.2444L32.9632 19.2404L32.9718 19.2361L32.7454 18.7903ZM32.7339 18.7959L32.9579 19.2429L32.9596 19.2421L32.7339 18.7959ZM33.1332 14.6169L32.8351 15.0183L32.8358 15.0188L33.1332 14.6169ZM33.0504 14.5579L33.3329 14.1453L33.3322 14.1449L33.0504 14.5579ZM32.9279 14.4792L32.6685 14.9067L32.6691 14.907L32.9279 14.4792ZM32.8601 14.4391L33.1066 14.0041L33.1064 14.0039L32.8601 14.4391ZM32.5376 14.2836L32.7242 13.8197L32.724 13.8196L32.5376 14.2836ZM32.5094 14.2728L32.3282 14.7387L32.3284 14.7388L32.5094 14.2728ZM32.3147 14.2053L32.4607 13.7271L32.4601 13.7269L32.3147 14.2053ZM32.2562 14.1882L32.1209 14.6695L32.1213 14.6696L32.2562 14.1882ZM32.1135 14.1523L32.2228 13.6644L32.2225 13.6643L32.1135 14.1523ZM32.0031 14.1297L31.914 14.6217L31.9154 14.622L32.0031 14.1297ZM31.9253 14.1166L32.0011 13.6224L31.9997 13.6222L31.9253 14.1166ZM31.7505 14.0955L31.7066 14.5935L31.707 14.5936L31.7505 14.0955ZM31.7189 14.0932L31.6861 14.5921L31.6861 14.5921L31.7189 14.0932ZM31.703 14.0921L31.7385 13.5934L31.7378 13.5933L31.703 14.0921ZM31.3004 14.0918L31.2657 13.593L31.265 13.5931L31.3004 14.0918ZM31.2866 14.0928L31.3203 14.5916L31.3203 14.5916L31.2866 14.0928ZM31.2526 14.0953L31.2954 14.5935L31.2963 14.5934L31.2526 14.0953ZM31.0781 14.1161L31.0043 13.6215L31.0029 13.6217L31.0781 14.1161ZM31.003 14.1288L31.0903 14.6211L31.092 14.6208L31.003 14.1288ZM30.8934 14.1508L30.7859 13.6625L30.7848 13.6628L30.8934 14.1508ZM30.7522 14.186L30.8849 14.6681L30.8862 14.6677L30.7522 14.186ZM30.6881 14.2044L30.5435 13.7258L30.5424 13.7262L30.6881 14.2044ZM30.4857 14.2747L30.6668 14.7407L30.6685 14.7401L30.4857 14.2747ZM30.4775 14.2778L30.3049 13.8085L30.3048 13.8085L30.4775 14.2778ZM30.4668 14.2818L30.6533 14.7457L30.6534 14.7457L30.4668 14.2818ZM30.354 14.33L30.1473 13.8747L30.1459 13.8754L30.354 14.33ZM30.3427 14.3354L30.1254 13.8851L30.1253 13.8851L30.3427 14.3354ZM30.3352 14.339L30.5454 14.7926L30.5485 14.7912L30.3352 14.339ZM30.1474 14.4352L29.9025 13.9993L29.9023 13.9994L30.1474 14.4352ZM30.089 14.4692L30.3448 14.8989L30.3454 14.8985L30.089 14.4692ZM29.9591 14.5518L29.6789 14.1377L29.6788 14.1377L29.9591 14.5518ZM29.8854 14.6033L30.1794 15.0078L30.1797 15.0076L29.8854 14.6033ZM30.6481 18.9518L30.4945 19.4277L30.495 19.4278L30.6481 18.9518ZM30.6628 18.9566L30.8182 18.4814L30.8181 18.4813L30.6628 18.9566ZM30.6967 18.9674L30.8414 18.4888L30.8397 18.4882L30.6967 18.9674ZM30.7526 18.9832L30.8853 18.5012L30.8852 18.5011L30.7526 18.9832ZM30.7619 18.9858L30.895 18.5038L30.8946 18.5037L30.7619 18.9858ZM30.8397 19.006L30.9588 18.5203L30.9579 18.5201L30.8397 19.006ZM30.8427 19.0067L30.7237 19.4923L30.724 19.4924L30.8427 19.0067ZM30.892 19.0184L30.783 19.5064L30.7834 19.5065L30.892 19.0184ZM31.0242 19.0447L31.1168 18.5533L31.1079 18.5518L31.0242 19.0447ZM31.0269 19.0452L30.9344 19.5366L30.9802 19.5452H31.0269V19.0452ZM31.9735 19.0452V19.5452H32.0158L32.0576 19.5381L31.9735 19.0452ZM32.0949 19.0216L31.9893 18.5329L31.9884 18.5331L32.0949 19.0216ZM32.1094 19.0182L31.99 18.5326L31.9899 18.5327L32.1094 19.0182ZM32.1213 19.0153L32.2315 19.503L32.2322 19.5029L32.1213 19.0153ZM32.2148 18.9926L32.3436 19.4757L32.3459 19.4751L32.2148 18.9926ZM32.2471 18.9834L32.1129 18.5017L32.1113 18.5022L32.2471 18.9834ZM32.3319 18.9585L32.4809 19.4358L32.4819 19.4355L32.3319 18.9585ZM32.3578 18.95L32.1988 18.4759L32.1987 18.476L32.3578 18.95ZM32.3706 18.9457L32.5273 19.4205L32.5281 19.4203L32.3706 18.9457ZM32.4449 18.9202L32.6159 19.39L32.6161 19.39L32.4449 18.9202ZM32.4825 18.906L32.3034 18.4392L32.3032 18.4393L32.4825 18.906ZM32.4933 18.9018L32.6724 19.3687L32.6734 19.3683L32.4933 18.9018ZM32.5316 18.8869L32.3465 18.4224L32.3464 18.4224L32.5316 18.8869ZM32.5525 18.8784L32.743 19.3407L32.7435 19.3405L32.5525 18.8784ZM32.6147 18.8518L32.4128 18.3944L32.4126 18.3945L32.6147 18.8518ZM32.6534 18.8344L32.8629 19.2884L32.8631 19.2883L32.6534 18.8344ZM33.7581 12.92L33.5179 13.3585L33.8107 13.5188L34.071 13.31L33.7581 12.92ZM33.7252 12.9032L33.5048 13.352L33.5049 13.3521L33.7252 12.9032ZM35.1523 9.75211L34.6529 9.7769L34.6529 9.77691L35.1523 9.75211ZM33.6245 7.02965L33.9644 6.66282L33.9567 6.65595L33.6245 7.02965ZM33.6245 7.0296L33.2846 7.39643L33.2923 7.40331L33.6245 7.0296ZM31.8999 3.4334L32.3983 3.47443L32.4953 2.29584L31.5822 3.04735L31.8999 3.4334ZM29.9708 5.39683L29.5837 5.08037L29.5837 5.08038L29.9708 5.39683ZM27.8464 10.0749L28.3458 10.0501L28.3458 10.05L27.8464 10.0749ZM29.2726 12.9035L28.9597 13.2934L29.2178 13.5005L29.5093 13.3439L29.2726 12.9035ZM29.2985 12.8905L29.0817 12.44L29.0816 12.44L29.2985 12.8905ZM29.321 12.8794L29.5529 13.3224L29.5537 13.322L29.321 12.8794ZM29.4869 12.7968L29.2736 12.3446L29.2727 12.345L29.4869 12.7968ZM29.5103 12.7854L29.7316 13.2338L29.7316 13.2338L29.5103 12.7854ZM29.5397 12.7713L29.3311 12.3168L29.3309 12.3169L29.5397 12.7713ZM29.7892 12.666L29.6144 12.1974L29.6074 12.2002L29.7892 12.666ZM29.8094 12.6584L29.9841 13.1269L29.9889 13.1251L29.8094 12.6584ZM30.0556 12.5719L29.9028 12.0959L29.9028 12.0959L30.0556 12.5719ZM30.0778 12.5648L29.9273 12.088L29.925 12.0887L30.0778 12.5648ZM30.8944 12.3855L30.9577 12.8815L30.9601 12.8812L30.8944 12.3855ZM30.9362 12.3804L30.994 12.8771L30.9941 12.8771L30.9362 12.3804ZM30.9454 12.3794L31.0033 12.876L31.0036 12.876L30.9454 12.3794ZM31.1648 12.3589L31.1305 11.8601L31.13 11.8602L31.1648 12.3589ZM31.1896 12.3571L31.2279 12.8556L31.2279 12.8556L31.1896 12.3571ZM31.2291 12.3543L31.2011 11.8551L31.2008 11.8551L31.2291 12.3543ZM31.7738 12.3545L31.8031 11.8554L31.802 11.8553L31.7738 12.3545ZM31.8403 12.3593L31.8052 12.8581L31.8054 12.8581L31.8403 12.3593ZM32.0618 12.3801L32.1216 11.8837L32.1207 11.8836L32.0618 12.3801ZM32.0795 12.3822L32.0215 12.8789L32.0215 12.8789L32.0795 12.3822ZM32.1139 12.3864L32.0492 12.8822L32.0497 12.8823L32.1139 12.3864ZM32.6714 12.4929L32.8106 12.0126L32.8028 12.0104L32.795 12.0084L32.6714 12.4929ZM32.6726 12.4932L32.5334 12.9734L32.5412 12.9757L32.5491 12.9777L32.6726 12.4932ZM32.9381 12.5698L33.091 12.0937L33.0902 12.0935L32.9381 12.5698ZM32.967 12.5791L33.1222 12.1038L33.12 12.103L32.967 12.5791ZM33.4754 12.7785L33.2652 13.2322L33.266 13.2325L33.4754 12.7785ZM33.5265 12.8031L33.3064 13.252L33.3064 13.252L33.5265 12.8031ZM33.551 12.815L33.7694 12.3652L33.7687 12.3649L33.551 12.815ZM33.6971 12.889L33.932 12.4476L33.9316 12.4475L33.6971 12.889ZM11.8533 17.1215L11.853 16.9903L10.853 16.9922L10.8533 17.1234L11.8533 17.1215ZM18.4924 24.5869C18.4924 20.4779 15.3916 17.082 11.4102 16.6257L11.2963 17.6192C14.7774 18.0182 17.4924 20.9907 17.4924 24.5869H18.4924ZM18.4924 31.4861V24.5869H17.4924V31.4861H18.4924ZM10.4962 39.5C14.9068 39.5 18.4924 35.9043 18.4924 31.4861H17.4924C17.4924 35.3542 14.3523 38.5 10.4962 38.5V39.5ZM2.5 31.4861C2.5 35.9043 6.08553 39.5 10.4962 39.5V38.5C6.64004 38.5 3.5 35.3542 3.5 31.4861H2.5ZM2.5 24.5869V31.4861H3.5V24.5869H2.5ZM9.57858 16.6262C5.59892 17.0841 2.5 20.4791 2.5 24.5869H3.5C3.5 20.9918 6.21337 18.02 9.69288 17.6197L9.57858 16.6262ZM9.13547 16.9941L9.13573 17.124L10.1357 17.122L10.1355 16.9921L9.13547 16.9941ZM12.5577 13.5393C10.6667 13.5517 9.13547 15.0964 9.13547 16.9931H10.1355C10.1355 15.6439 11.2252 14.5481 12.5642 14.5393L12.5577 13.5393ZM15.1554 13.4288L12.5398 13.5398L12.5821 14.5389L15.1978 14.4279L15.1554 13.4288ZM15.213 13.4276C15.1938 13.4276 15.1746 13.428 15.1553 13.4288L15.198 14.4279C15.2029 14.4277 15.2079 14.4276 15.213 14.4276V13.4276ZM15.7823 12.8557C15.7823 13.1717 15.5253 13.4276 15.213 13.4276V14.4276C16.0798 14.4276 16.7823 13.7217 16.7823 12.8557H15.7823ZM15.213 12.2838C15.5253 12.2838 15.7823 12.5397 15.7823 12.8557H16.7823C16.7823 11.9895 16.0798 11.2838 15.213 11.2838V12.2838ZM9.36821 12.2838H15.213V11.2838H9.36821V12.2838ZM6.08126 8.9902C6.08126 10.8056 7.55426 12.2838 9.36821 12.2838V11.2838C8.10879 11.2838 7.08126 10.2556 7.08126 8.9902H6.08126ZM7.05949 6.6512C6.42951 7.27294 6.08126 8.10525 6.08126 8.9902H7.08126C7.08126 8.37298 7.32217 7.79695 7.76193 7.36295L7.05949 6.6512ZM9.38121 5.71342C8.51065 5.7014 7.68271 6.03615 7.0595 6.6512L7.76192 7.36295C8.19609 6.93448 8.76664 6.70503 9.3674 6.71332L9.38121 5.71342ZM14.4822 5.7132L9.37429 5.71337L9.37432 6.71337L14.4822 6.7132L14.4822 5.7132ZM15.7237 4.4674C15.7237 5.15498 15.1652 5.71314 14.4822 5.7132L14.4822 6.7132C15.7197 6.71309 16.7237 5.70502 16.7237 4.4674H15.7237ZM14.4821 3.22169C15.1652 3.22169 15.7237 3.77983 15.7237 4.4674H16.7237C16.7237 3.22978 15.7197 2.22169 14.4821 2.22169V3.22169ZM8.66467 3.22169H14.4821V2.22169H8.66467V3.22169ZM7.30585 1.86085C7.30585 2.61135 7.91321 3.22169 8.66467 3.22169V2.22169C8.46765 2.22169 8.30585 2.06123 8.30585 1.86085H7.30585ZM8.66467 0.5C7.91321 0.5 7.30585 1.11034 7.30585 1.86085H8.30585C8.30585 1.66046 8.46765 1.5 8.66467 1.5V0.5ZM14.4821 0.5H8.66467V1.5H14.4821V0.5ZM18.4413 4.4674C18.4413 2.28044 16.6668 0.5 14.4821 0.5V1.5C16.1123 1.5 17.4413 2.83049 17.4413 4.4674H18.4413ZM14.4822 8.43489C16.6669 8.43489 18.4413 6.65434 18.4413 4.4674H17.4413C17.4413 6.10435 16.1123 7.43489 14.4822 7.43489V8.43489ZM9.36823 8.43507L14.4822 8.43489L14.4822 7.43489L9.36819 7.43507L9.36823 8.43507ZM9.33384 8.43479L9.3639 8.43505L9.37252 7.43508L9.34246 7.43482L9.33384 8.43479ZM8.96694 8.58991C9.07081 8.48734 9.20131 8.43481 9.33815 8.43481V7.43481C8.93394 7.43481 8.55224 7.59404 8.26432 7.87834L8.96694 8.58991ZM8.7989 8.99012C8.7989 8.83843 8.85743 8.69796 8.96682 8.59002L8.26444 7.87822C7.96537 8.17333 7.7989 8.56986 7.7989 8.99012H8.7989ZM9.36821 9.56204C9.05591 9.56204 8.7989 9.30617 8.7989 8.99012H7.7989C7.7989 9.85618 8.50135 10.562 9.36821 10.562V9.56204ZM15.2131 9.56204H9.36821V10.562H15.2131V9.56204ZM18.5 12.8556C18.5 11.0401 17.027 9.56204 15.2131 9.56204V10.562C16.4725 10.562 17.5 11.5902 17.5 12.8556H18.5ZM15.2364 16.1491C17.0396 16.1364 18.5 14.6632 18.5 12.8556H17.5C17.5 14.1155 16.4813 15.1403 15.2294 15.1491L15.2364 16.1491ZM12.6381 16.2596L15.2541 16.1487L15.2117 15.1496L12.5957 15.2605L12.6381 16.2596ZM12.5806 16.2608C12.5998 16.2608 12.6191 16.2604 12.6383 16.2596L12.5956 15.2605C12.5906 15.2607 12.5856 15.2608 12.5806 15.2608V16.2608ZM11.853 16.9913C11.8531 16.5879 12.181 16.2608 12.5806 16.2608V15.2608C11.6265 15.2608 10.8531 16.0378 10.853 16.9912L11.853 16.9913ZM5.21763 24.5869C5.21763 21.936 7.17263 19.7337 9.71152 19.353L9.56321 18.364C6.54092 18.8173 4.21763 21.4349 4.21763 24.5869H5.21763ZM5.21763 25.8798V24.5869H4.21763V25.8798H5.21763ZM9.63736 25.3798H4.71763V26.3798H9.63736V25.3798ZM9.13736 18.8585V25.8798H10.1374V18.8585H9.13736ZM15.7747 31.4861C15.7747 34.4049 13.4052 36.7783 10.4962 36.7783V37.7783C13.9597 37.7783 16.7747 34.955 16.7747 31.4861H15.7747ZM15.7747 27.6015V31.4861H16.7747V27.6015H15.7747ZM4.71763 28.1015H16.2747V27.1015H4.71763V28.1015ZM5.21763 31.4861V27.6015H4.21763V31.4861H5.21763ZM10.4962 36.7783C7.58714 36.7783 5.21763 34.4049 5.21763 31.4861H4.21763C4.21763 34.955 7.03263 37.7783 10.4962 37.7783V36.7783ZM16.2747 25.3798H11.355V26.3798H16.2747V25.3798ZM15.7747 24.5869V25.8798H16.7747V24.5869H15.7747ZM11.2808 19.353C13.8197 19.7337 15.7747 21.936 15.7747 24.5869H16.7747C16.7747 21.4349 14.4514 18.8173 11.4291 18.364L11.2808 19.353ZM11.855 25.8798V18.8585H10.855V25.8798H11.855ZM37.4924 9.64606C37.38 7.3827 36.1464 6.24839 35.2557 5.42312L34.576 6.15664C35.4456 6.96232 36.4024 7.85783 36.4936 9.69565L37.4924 9.64606ZM35.4611 14.4685C36.8256 13.2739 37.585 11.5125 37.4924 9.64608L36.4936 9.69563C36.5711 11.2571 35.9368 12.723 34.8024 13.716L35.4611 14.4685ZM36.4938 16.5844C36.4939 15.5358 36.1322 14.5683 35.5272 13.7863L34.7363 14.3982C35.2143 15.0162 35.4939 15.771 35.4938 16.5843L36.4938 16.5844ZM35.7365 19.1053C36.2178 18.3741 36.4938 17.509 36.4938 16.5844H35.4938C35.4938 17.3066 35.279 17.9816 34.9012 18.5555L35.7365 19.1053ZM35.8189 35.2515V18.8304H34.8189V35.2515H35.8189ZM31.3445 39.5C33.7841 39.5 35.8189 37.6218 35.8189 35.2515H34.8189C34.8189 37.0152 33.2878 38.5 31.3445 38.5V39.5ZM26.8702 35.2515C26.8702 37.6218 28.905 39.5 31.3445 39.5V38.5C29.4013 38.5 27.8702 37.0152 27.8702 35.2515H26.8702ZM26.8702 18.2692V35.2515H27.8702V18.2692H26.8702ZM26.5061 16.5844C26.5061 17.255 26.6511 17.8952 26.9149 18.476L27.8254 18.0624C27.6193 17.6088 27.5061 17.1093 27.5061 16.5844H26.5061ZM27.4945 13.7575C26.8761 14.5446 26.5061 15.5232 26.5061 16.5844H27.5061C27.5061 15.761 27.7922 14.9973 28.2809 14.3753L27.4945 13.7575ZM25.5062 10.1809C25.5888 11.8428 26.3364 13.3687 27.5576 14.4419L28.2178 13.6908C27.1988 12.7952 26.5741 11.522 26.505 10.1313L25.5062 10.1809ZM27.8966 4.30371C26.791 5.71587 25.3952 7.94371 25.5062 10.1809L26.505 10.1313C26.4134 8.28627 27.5932 6.31334 28.684 4.92018L27.8966 4.30371ZM31.8418 0.75571C31.2658 1.02467 30.5809 1.53183 29.9027 2.14517C29.2176 2.76469 28.5122 3.51742 27.8966 4.3037L28.6839 4.9202C29.2644 4.17885 29.9308 3.46801 30.5734 2.88685C31.2229 2.2995 31.8214 1.86888 32.2649 1.6618L31.8418 0.75571ZM33.9255 0.854949C33.7245 0.695982 33.4441 0.550203 33.079 0.510519C32.7148 0.470932 32.3022 0.540787 31.8418 0.755692L32.2649 1.66182C32.5914 1.50939 32.8205 1.48831 32.971 1.50466C33.1205 1.52092 33.2276 1.57797 33.305 1.63921L33.9255 0.854949ZM34.4091 2.77778C34.5603 2.29169 34.5432 1.87712 34.4193 1.53705C34.2976 1.2031 34.0888 0.984162 33.9255 0.854981L33.305 1.63917C33.3655 1.68701 33.4377 1.76406 33.4797 1.8794C33.5195 1.98863 33.5488 2.17667 33.4542 2.48085L34.4091 2.77778ZM35.2557 5.42311C34.758 4.96184 34.4687 4.68196 34.3238 4.33883C34.1931 4.02907 34.1558 3.59256 34.4091 2.77775L33.4542 2.48088C33.1648 3.41162 33.1436 4.11419 33.4026 4.72771C33.6474 5.30788 34.1216 5.73549 34.576 6.15658L35.2557 5.42311ZM35.2561 5.42349L35.2561 5.42345L34.5756 6.15624L34.5757 6.15628L35.2561 5.42349ZM32.9761 35.2515C32.9762 36.0567 32.2719 36.7619 31.3446 36.7619V37.7619C32.7682 37.7619 33.9763 36.6634 33.9761 35.2514L32.9761 35.2515ZM32.9761 20.3952V35.2515H33.9761V20.3952H32.9761ZM32.6424 21.1973C33.0075 21.1169 33.3561 20.9997 33.6838 20.8501L33.2685 19.9404C33.0051 20.0607 32.7237 20.1554 32.4274 20.2206L32.6424 21.1973ZM32.5892 21.2085C32.5977 21.2067 32.6244 21.2013 32.6435 21.197L32.4262 20.2209C32.4126 20.2239 32.4063 20.2251 32.3819 20.2302L32.5892 21.2085ZM32.566 21.2134C32.5734 21.2118 32.5803 21.2104 32.5873 21.2089L32.3838 20.2298C32.3761 20.2314 32.3684 20.2331 32.3611 20.2346L32.566 21.2134ZM32.4613 21.2343C32.4995 21.2273 32.5363 21.2196 32.566 21.2134L32.3611 20.2346C32.3294 20.2412 32.3049 20.2463 32.2811 20.2507L32.4613 21.2343ZM32.2621 21.2676C32.3304 21.2576 32.3974 21.2462 32.4628 21.234L32.2796 20.2509C32.2247 20.2612 32.1708 20.2703 32.1177 20.2781L32.2621 21.2676ZM32.0494 21.283C32.1204 21.283 32.1916 21.2779 32.2621 21.2676L32.1177 20.2781C32.0954 20.2813 32.0725 20.283 32.0494 20.283V21.283ZM30.9506 21.283H32.0494V20.283H30.9506V21.283ZM30.738 21.2676C30.8085 21.2779 30.8795 21.283 30.9506 21.283V20.283C30.9276 20.283 30.9047 20.2813 30.8821 20.278L30.738 21.2676ZM28.9712 20.6763C29.5022 20.9696 30.0976 21.1743 30.738 21.2676L30.8821 20.278C30.3613 20.2022 29.8808 20.0363 29.4548 19.801L28.9712 20.6763ZM29.713 35.2515V20.2386H28.713V35.2515H29.713ZM31.3446 36.7619C30.4174 36.7619 29.713 36.0567 29.713 35.2515H28.713C28.713 36.6634 29.9211 37.7619 31.3446 37.7619V36.7619ZM32.5362 18.3361C32.5226 18.3424 32.5107 18.3485 32.5082 18.3497L32.9596 19.2421C32.9618 19.2409 32.9616 19.241 32.9611 19.2413C32.9603 19.2417 32.9579 19.2429 32.9546 19.2444L32.5362 18.3361ZM33.6513 16.5845C33.6513 17.3148 33.2078 17.9947 32.519 18.3444L32.9718 19.2361C33.9626 18.733 34.6513 17.7277 34.6513 16.5845H33.6513ZM32.8358 15.0188C33.3396 15.3916 33.6513 15.9593 33.6513 16.5845H34.6513C34.6513 15.6135 34.1652 14.7585 33.4306 14.2149L32.8358 15.0188ZM32.7679 14.9704C32.791 14.9863 32.8134 15.0022 32.8351 15.0183L33.4313 14.2154C33.3984 14.191 33.3656 14.1677 33.3329 14.1453L32.7679 14.9704ZM32.6691 14.907C32.7034 14.9278 32.7365 14.949 32.7685 14.9709L33.3322 14.1449C33.2842 14.1121 33.2357 14.0811 33.1868 14.0514L32.6691 14.907ZM32.6136 14.8741C32.6293 14.883 32.6462 14.8931 32.6685 14.9067L33.1873 14.0518C33.1647 14.0381 33.1366 14.0211 33.1066 14.0041L32.6136 14.8741ZM32.351 14.7475C32.4416 14.7839 32.5293 14.8264 32.6139 14.8742L33.1064 14.0039C32.9845 13.935 32.857 13.8732 32.7242 13.8197L32.351 14.7475ZM32.3284 14.7388C32.3352 14.7415 32.3428 14.7443 32.3457 14.7455C32.3477 14.7462 32.349 14.7467 32.35 14.7471C32.351 14.7475 32.3513 14.7476 32.3513 14.7476L32.724 13.8196C32.7149 13.816 32.7066 13.8128 32.7014 13.8108C32.6949 13.8084 32.693 13.8077 32.6905 13.8067L32.3284 14.7388ZM32.1688 14.6835C32.223 14.7001 32.2762 14.7185 32.3282 14.7387L32.6907 13.8068C32.6153 13.7775 32.5386 13.7509 32.4607 13.7271L32.1688 14.6835ZM32.1213 14.6696C32.1369 14.674 32.1529 14.6787 32.1693 14.6837L32.4601 13.7269C32.4377 13.7201 32.4147 13.7133 32.3912 13.7068L32.1213 14.6696ZM32.0042 14.6402C32.0444 14.6492 32.0833 14.659 32.1209 14.6695L32.3915 13.7069C32.3352 13.691 32.2788 13.677 32.2228 13.6644L32.0042 14.6402ZM31.9154 14.622C31.942 14.6267 31.9708 14.6327 32.0045 14.6403L32.2225 13.6643C32.1831 13.6555 32.1383 13.6459 32.0909 13.6375L31.9154 14.622ZM31.8495 14.6108C31.8699 14.614 31.8912 14.6176 31.914 14.6217L32.0923 13.6377C32.0633 13.6325 32.0328 13.6272 32.0011 13.6224L31.8495 14.6108ZM31.707 14.5936C31.7535 14.5976 31.8012 14.6036 31.8509 14.611L31.9997 13.6222C31.9338 13.6123 31.8651 13.6036 31.7939 13.5974L31.707 14.5936ZM31.6861 14.5921C31.6977 14.5928 31.7026 14.5932 31.7066 14.5935L31.7944 13.5974C31.7774 13.5959 31.7612 13.5949 31.7516 13.5942L31.6861 14.5921ZM31.6674 14.5908C31.6743 14.5913 31.681 14.5918 31.6861 14.5921L31.7517 13.5942C31.7461 13.5939 31.7422 13.5936 31.7385 13.5934L31.6674 14.5908ZM31.5003 14.584C31.5524 14.584 31.607 14.5866 31.6681 14.5909L31.7378 13.5933C31.6647 13.5882 31.5847 13.584 31.5003 13.584V14.584ZM31.3351 14.5906C31.3947 14.5865 31.4488 14.584 31.5003 14.584V13.584C31.4176 13.584 31.3386 13.588 31.2657 13.593L31.3351 14.5906ZM31.3203 14.5916C31.3248 14.5913 31.3302 14.591 31.3358 14.5906L31.265 13.5931C31.2614 13.5933 31.2576 13.5936 31.2528 13.5939L31.3203 14.5916ZM31.2963 14.5934C31.3017 14.5929 31.3081 14.5925 31.3203 14.5916L31.2529 13.5939C31.2424 13.5946 31.226 13.5957 31.2089 13.5972L31.2963 14.5934ZM31.1518 14.6106C31.2009 14.6033 31.2486 14.5975 31.2954 14.5935L31.2098 13.5971C31.1392 13.6032 31.0706 13.6117 31.0043 13.6215L31.1518 14.6106ZM31.092 14.6208C31.1151 14.6166 31.1348 14.6132 31.1532 14.6104L31.0029 13.6217C30.971 13.6266 30.9408 13.6319 30.9139 13.6367L31.092 14.6208ZM31.001 14.6391C31.0335 14.632 31.0627 14.626 31.0903 14.6211L30.9157 13.6364C30.8697 13.6446 30.826 13.6537 30.7859 13.6625L31.001 14.6391ZM30.8862 14.6677C30.9234 14.6574 30.962 14.6478 31.0021 14.6389L30.7848 13.6628C30.7296 13.6751 30.674 13.6888 30.6181 13.7043L30.8862 14.6677ZM30.8328 14.6831C30.8493 14.6781 30.8665 14.6732 30.8849 14.6681L30.6195 13.704C30.5949 13.7107 30.5696 13.718 30.5435 13.7258L30.8328 14.6831ZM30.6685 14.7401C30.7215 14.7192 30.7766 14.7002 30.8339 14.6827L30.5424 13.7262C30.4622 13.7506 30.3822 13.7781 30.3029 13.8093L30.6685 14.7401ZM30.65 14.747C30.6521 14.7463 30.6591 14.7437 30.6668 14.7407L30.3046 13.8086L30.3049 13.8085L30.65 14.747ZM30.6534 14.7457C30.6507 14.7468 30.6488 14.7475 30.6483 14.7477C30.648 14.7478 30.6481 14.7478 30.6501 14.747L30.3048 13.8085C30.3024 13.8094 30.2919 13.8132 30.2803 13.8179L30.6534 14.7457ZM30.5607 14.7853C30.5908 14.7716 30.6217 14.7584 30.6533 14.7457L30.2804 13.8179C30.2358 13.8358 30.1914 13.8547 30.1473 13.8747L30.5607 14.7853ZM30.56 14.7857C30.5621 14.7847 30.5628 14.7843 30.5634 14.784C30.5638 14.7838 30.5632 14.7841 30.5621 14.7847L30.1459 13.8754C30.1367 13.8796 30.1283 13.8837 30.1254 13.8851L30.56 14.7857ZM30.5485 14.7912C30.5534 14.7889 30.5579 14.7867 30.5601 14.7856L30.1253 13.8851C30.1239 13.8858 30.1232 13.8861 30.1225 13.8864C30.1219 13.8867 30.1217 13.8868 30.1218 13.8868L30.5485 14.7912ZM30.3923 14.8711C30.4426 14.8428 30.4936 14.8166 30.5454 14.7926L30.1249 13.8853C30.0485 13.9207 29.9744 13.9588 29.9025 13.9993L30.3923 14.8711ZM30.3454 14.8985C30.3635 14.8877 30.3786 14.8788 30.3925 14.871L29.9023 13.9994C29.877 14.0136 29.8531 14.0277 29.8326 14.04L30.3454 14.8985ZM30.2393 14.9659C30.2738 14.9425 30.309 14.9202 30.3448 14.8989L29.8332 14.0396C29.7805 14.071 29.7291 14.1037 29.6789 14.1377L30.2393 14.9659ZM30.1797 15.0076C30.1983 14.994 30.218 14.9803 30.2393 14.9659L29.6788 14.1377C29.6505 14.1569 29.6211 14.1773 29.5912 14.1991L30.1797 15.0076ZM29.3491 16.5845C29.3491 15.9532 29.667 15.3802 30.1794 15.0078L29.5915 14.1989C28.8447 14.7416 28.3491 15.6039 28.3491 16.5845H29.3491ZM30.8016 18.476C29.9367 18.1969 29.3491 17.4235 29.3491 16.5845H28.3491C28.3491 17.8983 29.2568 19.0282 30.4945 19.4277L30.8016 18.476ZM30.8181 18.4813C30.8134 18.4798 30.8074 18.4778 30.8012 18.4758L30.495 19.4278C30.4986 19.429 30.5024 19.4302 30.5074 19.4319L30.8181 18.4813ZM30.8397 18.4882C30.8356 18.487 30.8305 18.4854 30.8182 18.4814L30.5073 19.4318C30.5176 19.4352 30.5351 19.4409 30.5538 19.4465L30.8397 18.4882ZM30.8852 18.5011C30.8655 18.4957 30.8529 18.4922 30.8414 18.4888L30.552 19.446C30.5776 19.4537 30.6024 19.4605 30.62 19.4653L30.8852 18.5011ZM30.8946 18.5037L30.8853 18.5012L30.6198 19.4653L30.6291 19.4678L30.8946 18.5037ZM30.9579 18.5201C30.9361 18.5148 30.9152 18.5094 30.895 18.5038L30.6287 19.4677C30.6601 19.4764 30.6911 19.4844 30.7215 19.4918L30.9579 18.5201ZM30.9618 18.5211L30.9588 18.5203L30.7207 19.4916L30.7237 19.4923L30.9618 18.5211ZM31.001 18.5304C30.9902 18.528 30.9787 18.5252 30.9615 18.521L30.724 19.4924C30.7396 19.4962 30.7608 19.5014 30.783 19.5064L31.001 18.5304ZM31.1079 18.5518C31.0745 18.5461 31.0393 18.5389 31.0005 18.5303L30.7834 19.5065C30.8322 19.5173 30.8849 19.5282 30.9404 19.5377L31.1079 18.5518ZM31.1195 18.5539L31.1167 18.5534L30.9316 19.5361L30.9344 19.5366L31.1195 18.5539ZM31.9735 18.5452H31.0269V19.5452H31.9735V18.5452ZM31.9884 18.5331C31.9552 18.5403 31.9222 18.5468 31.8893 18.5524L32.0576 19.5381C32.1062 19.5298 32.1541 19.5204 32.2014 19.5101L31.9884 18.5331ZM31.9899 18.5327L31.9893 18.5329L32.2005 19.5103C32.2135 19.5075 32.2252 19.5046 32.2289 19.5037L31.9899 18.5327ZM32.011 18.5276C32.0017 18.5298 31.9931 18.5319 31.99 18.5326L32.2288 19.5037C32.2335 19.5026 32.2329 19.5027 32.2315 19.503L32.011 18.5276ZM32.086 18.5095C32.0637 18.5154 32.0394 18.5212 32.0104 18.5278L32.2322 19.5029C32.2658 19.4952 32.3039 19.4863 32.3436 19.4757L32.086 18.5095ZM32.1113 18.5022C32.0871 18.509 32.0939 18.5073 32.0837 18.5101L32.3459 19.4751C32.3553 19.4725 32.3639 19.4701 32.3697 19.4684C32.3767 19.4663 32.3795 19.4655 32.3829 19.4646L32.1113 18.5022ZM32.1828 18.4812C32.1614 18.4879 32.1385 18.4946 32.1129 18.5017L32.3813 19.465C32.4125 19.4563 32.4462 19.4466 32.4809 19.4358L32.1828 18.4812ZM32.1987 18.476C32.1894 18.4791 32.1853 18.4805 32.1819 18.4815L32.4819 19.4355C32.4958 19.4311 32.5089 19.4267 32.5168 19.424L32.1987 18.476ZM32.2139 18.4709C32.2083 18.4728 32.2029 18.4746 32.1988 18.4759L32.5167 19.4241C32.5211 19.4226 32.5243 19.4215 32.5273 19.4205L32.2139 18.4709ZM32.274 18.4503C32.2566 18.4566 32.2377 18.463 32.2131 18.4712L32.5281 19.4203C32.5533 19.4119 32.584 19.4016 32.6159 19.39L32.274 18.4503ZM32.3032 18.4393C32.2899 18.4444 32.2815 18.4476 32.2738 18.4504L32.6161 19.39C32.6335 19.3836 32.6501 19.3772 32.6619 19.3727L32.3032 18.4393ZM32.3142 18.435L32.3034 18.4392L32.6617 19.3728L32.6724 19.3687L32.3142 18.435ZM32.3464 18.4224C32.3361 18.4265 32.3253 18.4307 32.3132 18.4354L32.6734 19.3683C32.6868 19.3631 32.7015 19.3574 32.7167 19.3513L32.3464 18.4224ZM32.3621 18.4161C32.3572 18.4181 32.352 18.4202 32.3465 18.4224L32.7166 19.3514C32.7252 19.348 32.734 19.3444 32.743 19.3407L32.3621 18.4161ZM32.4126 18.3945C32.3957 18.402 32.3787 18.4092 32.3616 18.4163L32.7435 19.3405C32.7681 19.3303 32.7926 19.3199 32.8169 19.3091L32.4126 18.3945ZM32.444 18.3804C32.4351 18.3845 32.4253 18.3889 32.4128 18.3944L32.8167 19.3092C32.8302 19.3032 32.8462 19.2961 32.8629 19.2884L32.444 18.3804ZM32.5099 18.3489C32.4899 18.3589 32.4683 18.3692 32.4437 18.3805L32.8631 19.2883C32.8928 19.2746 32.9248 19.2595 32.9579 19.2429L32.5099 18.3489ZM33.9982 12.4814C33.976 12.4693 33.9549 12.459 33.9455 12.4544L33.5049 13.3521C33.5108 13.355 33.5138 13.3565 33.5164 13.3578C33.5187 13.3589 33.5189 13.3591 33.5179 13.3585L33.9982 12.4814ZM34.6529 9.77691C34.7074 10.8734 34.2484 11.8855 33.4452 12.53L34.071 13.31C35.1312 12.4594 35.7216 11.1353 35.6517 9.72731L34.6529 9.77691ZM33.2847 7.3964C33.6846 7.767 34.0025 8.06496 34.239 8.42428C34.4646 8.76711 34.6233 9.17966 34.6529 9.7769L35.6517 9.72732C35.6133 8.95478 35.3998 8.36902 35.0743 7.87453C34.7598 7.39654 34.3478 7.01816 33.9644 6.6629L33.2847 7.3964ZM33.2923 7.40331L33.2923 7.40335L33.9567 6.65595L33.9567 6.6559L33.2923 7.40331ZM31.4016 3.39237C31.2276 5.50653 32.4299 6.60436 33.2846 7.39635L33.9643 6.66286C33.1139 5.87482 32.2666 5.07318 32.3983 3.47443L31.4016 3.39237ZM30.3579 5.71329C31.0446 4.87327 31.7031 4.24296 32.2177 3.81946L31.5822 3.04735C31.0175 3.51214 30.3124 4.18899 29.5837 5.08037L30.3579 5.71329ZM28.3458 10.05C28.2934 8.9943 28.9685 7.41281 30.3579 5.71329L29.5837 5.08038C28.1492 6.83514 27.2757 8.6638 27.3471 10.0997L28.3458 10.05ZM29.5856 12.5135C28.8517 11.9246 28.3948 11.0365 28.3458 10.0501L27.3471 10.0996C27.4099 11.3666 27.9989 12.5224 28.9597 13.2934L29.5856 12.5135ZM29.0816 12.44C29.0746 12.4434 29.0559 12.4523 29.036 12.463L29.5093 13.3439C29.5071 13.3451 29.5062 13.3455 29.5073 13.345C29.5088 13.3442 29.5106 13.3434 29.5154 13.3411L29.0816 12.44ZM29.0891 12.4364C29.0903 12.4358 29.0905 12.4357 29.0892 12.4364C29.0876 12.4371 29.0857 12.438 29.0817 12.44L29.5153 13.3411C29.5217 13.338 29.5368 13.3308 29.5529 13.3224L29.0891 12.4364ZM29.2727 12.345C29.2119 12.3738 29.1502 12.4043 29.0883 12.4368L29.5537 13.322C29.6009 13.2971 29.65 13.2728 29.701 13.2487L29.2727 12.345ZM29.289 12.3371C29.2805 12.3413 29.2768 12.3431 29.2736 12.3446L29.7001 13.2491C29.7127 13.2431 29.7245 13.2373 29.7316 13.2338L29.289 12.3371ZM29.3309 12.3169C29.3137 12.3249 29.2977 12.3328 29.289 12.3371L29.7316 13.2338C29.7424 13.2285 29.7459 13.2268 29.7484 13.2256L29.3309 12.3169ZM29.6074 12.2002C29.5156 12.236 29.4232 12.2746 29.3311 12.3168L29.7482 13.2257C29.8197 13.1929 29.8939 13.1618 29.9709 13.1318L29.6074 12.2002ZM29.6347 12.1899L29.6145 12.1975L29.9639 13.1344L29.9841 13.1269L29.6347 12.1899ZM29.9028 12.0959C29.8118 12.1251 29.7206 12.1569 29.63 12.1917L29.9889 13.1251C30.06 13.0977 30.1332 13.0722 30.2084 13.048L29.9028 12.0959ZM29.925 12.0887L29.9028 12.0959L30.2084 13.048L30.2306 13.0409L29.925 12.0887ZM30.8311 11.8896C30.52 11.9293 30.2179 11.9963 29.9273 12.088L30.2283 13.0416C30.4625 12.9677 30.7063 12.9136 30.9577 12.8815L30.8311 11.8896ZM30.8784 11.8838C30.865 11.8853 30.8472 11.8874 30.8286 11.8899L30.9601 12.8812C30.9695 12.88 30.9794 12.8788 30.994 12.8771L30.8784 11.8838ZM30.8875 11.8827L30.8783 11.8838L30.9941 12.8771L31.0033 12.876L30.8875 11.8827ZM31.13 11.8602C31.0489 11.8658 30.9679 11.8733 30.8871 11.8828L31.0036 12.876C31.0681 12.8684 31.1335 12.8623 31.1995 12.8577L31.13 11.8602ZM31.1513 11.8586C31.1428 11.8592 31.1364 11.8597 31.1305 11.8601L31.1991 12.8578C31.2097 12.857 31.2199 12.8562 31.2279 12.8556L31.1513 11.8586ZM31.2008 11.8551C31.1818 11.8562 31.1637 11.8576 31.1513 11.8586L31.2279 12.8556C31.2419 12.8546 31.25 12.854 31.2574 12.8535L31.2008 11.8551ZM31.5001 11.8459C31.3968 11.8459 31.2968 11.8497 31.2011 11.8551L31.2571 12.8536C31.3409 12.8488 31.4212 12.8459 31.5001 12.8459V11.8459ZM31.802 11.8553C31.7055 11.8498 31.6044 11.8459 31.5001 11.8459V12.8459C31.5796 12.8459 31.6608 12.8489 31.7456 12.8537L31.802 11.8553ZM31.8755 11.8605C31.8652 11.8598 31.8278 11.8568 31.8031 11.8554L31.7445 12.8537C31.7642 12.8548 31.771 12.8556 31.8052 12.8581L31.8755 11.8605ZM32.1207 11.8836C32.0393 11.874 31.9576 11.8663 31.8753 11.8605L31.8054 12.8581C31.8718 12.8627 31.9376 12.8689 32.003 12.8767L32.1207 11.8836ZM32.1375 11.8856C32.1315 11.8849 32.1265 11.8843 32.1216 11.8837L32.0021 12.8766C32.009 12.8774 32.0157 12.8782 32.0215 12.8789L32.1375 11.8856ZM32.1786 11.8906C32.1632 11.8886 32.1484 11.8869 32.1375 11.8856L32.0215 12.8789C32.0335 12.8803 32.0417 12.8812 32.0492 12.8822L32.1786 11.8906ZM32.795 12.0084C32.5935 11.957 32.3876 11.9177 32.1781 11.8905L32.0497 12.8823C32.2199 12.9043 32.3861 12.9361 32.5478 12.9773L32.795 12.0084ZM32.8118 12.013L32.8106 12.0126L32.5322 12.9731L32.5334 12.9734L32.8118 12.013ZM33.0902 12.0935C32.9948 12.063 32.8968 12.0344 32.7961 12.0087L32.5491 12.9777C32.6278 12.9978 32.7066 13.0207 32.7859 13.0461L33.0902 12.0935ZM33.12 12.103L33.091 12.0937L32.7851 13.0458L32.814 13.0551L33.12 12.103ZM33.6856 12.3248C33.5029 12.2402 33.3147 12.1666 33.1222 12.1038L32.8117 13.0543C32.9683 13.1055 33.1197 13.1648 33.2652 13.2322L33.6856 12.3248ZM33.7467 12.3542C33.7307 12.3463 33.7083 12.3353 33.6848 12.3245L33.266 13.2325C33.2769 13.2375 33.2885 13.2432 33.3064 13.252L33.7467 12.3542ZM33.7687 12.3649C33.762 12.3616 33.7551 12.3583 33.7467 12.3542L33.3064 13.252C33.3143 13.2559 33.3237 13.2605 33.3332 13.2651L33.7687 12.3649ZM33.9316 12.4475C33.8772 12.4185 33.8228 12.3912 33.7694 12.3652L33.3325 13.2648C33.3775 13.2866 33.4208 13.3084 33.4625 13.3306L33.9316 12.4475ZM33.9456 12.4544C33.9405 12.4519 33.9376 12.4505 33.9351 12.4492C33.9327 12.448 33.9319 12.4476 33.932 12.4476L33.4622 13.3304C33.4799 13.3398 33.4967 13.348 33.5048 13.352L33.9456 12.4544Z"/>
</svg>
