<svg stroke="currentColor" fill="currentColor" width="40" height="40" viewBox="0 0 40 40" fill="none" xmlns="http://www.w3.org/2000/svg">
    <path d="M37.9758 17.5282C37.9746 17.5273 37.9737 17.5261 37.9729 17.5253L22.4719 2.02486C21.8111 1.36385 20.9327 1 19.9983 1C19.0639 1 18.1854 1.36385 17.5244 2.02486L2.03156 17.5174C2.02635 17.5227 2.02084 17.5282 2.01591 17.5334C0.659097 18.898 0.661416 21.1121 2.02258 22.4733C2.64445 23.0954 3.46549 23.4555 4.34365 23.4935C4.3796 23.497 4.41555 23.4987 4.45179 23.4987H5.06931V34.9058C5.06931 37.1634 6.90623 39 9.16381 39H15.2283C15.8432 39 16.3416 38.5013 16.3416 37.8867V28.9434C16.3416 27.9133 17.1797 27.0754 18.2098 27.0754H21.7868C22.8169 27.0754 23.6547 27.9133 23.6547 28.9434V37.8867C23.6547 38.5013 24.1531 39 24.768 39H30.8325C33.0904 39 34.927 37.1634 34.927 34.9058V23.4987H35.4999C36.434 23.4987 37.3124 23.1349 37.9737 22.4736C39.3363 21.1104 39.3369 18.8922 37.9758 17.5282ZM36.3992 20.8993C36.1589 21.1397 35.8394 21.2722 35.4999 21.2722H33.8137C33.1988 21.2722 32.7004 21.7705 32.7004 22.3854V34.9058C32.7004 35.9356 31.8626 36.7734 30.8325 36.7734H25.8813V28.9434C25.8813 26.6858 24.0447 24.8489 21.7868 24.8489H18.2098C15.9519 24.8489 14.115 26.6858 14.115 28.9434V36.7734H9.16381C8.13403 36.7734 7.29588 35.9356 7.29588 34.9058V22.3854C7.29588 21.7705 6.79751 21.2722 6.1826 21.2722H4.52543C4.50803 21.271 4.49093 21.2701 4.47324 21.2698C4.14158 21.264 3.8305 21.1324 3.59741 20.899C3.10165 20.4033 3.10165 19.5964 3.59741 19.1004C3.5977 19.1004 3.5977 19.1001 3.59799 19.0998L3.59886 19.0989L19.0993 3.59911C19.3393 3.35876 19.6585 3.22656 19.9983 3.22656C20.3378 3.22656 20.657 3.35876 20.8973 3.59911L36.3943 19.0957C36.3966 19.0981 36.3992 19.1004 36.4015 19.1027C36.8947 19.5993 36.8938 20.4044 36.3992 20.8993Z" />
</svg>
