<svg width="40" height="40" viewBox="0 0 32 32" stroke="currentColor" fill="currentColor" xmlns="http://www.w3.org/2000/svg">
    <path d="M28.8916 3.47881C28.8867 3.47875 28.8818 3.47837 28.8768 3.47844C28.8743 3.47844 28.8719 3.47825 28.8695 3.47825H3.13044C3.12819 3.47825 3.126 3.47837 3.12375 3.47837C3.11925 3.47837 3.11469 3.47862 3.11019 3.47875C1.39344 3.48975 0 4.88931 0 6.60869V25.3913C0 27.1174 1.40431 28.5217 3.13044 28.5217H28.8696C30.5957 28.5217 32 27.1174 32 25.3913V6.60869C32 4.88994 30.6076 3.49081 28.8916 3.47881ZM26.361 5.56519L16 15.9255L5.63975 5.56519H26.361ZM4.17394 26.4348H3.13044C2.55506 26.4348 2.08694 25.9667 2.08694 25.3913V10.867L4.17387 12.9539V26.4348H4.17394ZM25.7391 26.4348H6.26088V15.0409L13.7864 22.5664C14.3967 23.1767 15.1983 23.4818 16 23.4818C16.8017 23.4818 17.6032 23.1767 18.2136 22.5664L25.7391 15.0409V26.4348ZM29.9131 25.3913C29.9131 25.9667 29.4449 26.4348 28.8696 26.4348H27.8261V12.9539L29.913 10.867V25.3913H29.9131ZM29.9131 7.91562L26.0449 11.7837C26.0448 11.7839 26.0448 11.7839 26.0446 11.7841L16.7379 21.0907C16.5408 21.2878 16.2787 21.3964 16 21.3964C15.7212 21.3964 15.4593 21.2879 15.2621 21.0907L5.95544 11.7841C5.95531 11.7839 5.95525 11.7839 5.95506 11.7837L2.08694 7.91556V6.60862C2.08694 6.1645 2.36631 5.78531 2.75819 5.635L15.2621 18.1389C15.4659 18.3427 15.7329 18.4446 15.9999 18.4446C16.2669 18.4446 16.5341 18.3427 16.7377 18.139L29.2424 5.63525C29.6339 5.78581 29.9131 6.16481 29.9131 6.60869V7.91562Z"/>
</svg>
