<svg stroke="currentColor" fill="currentColor" width="42" height="42" viewBox="0 0 42 42" fill="none" xmlns="http://www.w3.org/2000/svg">
    <path d="M40.5594 1.11812C40.287 0.958146 39.952 0.960842 39.6821 1.12513L23.6774 10.8643C23.2622 11.1169 23.1246 11.668 23.3702 12.0953C23.6156 12.5225 24.1511 12.664 24.5664 12.4115L36.0495 5.42383L14.6604 28.2621L4.02214 24.9128L24.5664 12.4115C24.9816 12.1587 23.6157 12.5226 23.3702 12.0953C23.1247 11.6681 24.0926 10.6116 23.6774 10.8643L1.42887 24.4026C1.13105 24.5839 0.965198 24.9289 1.00616 25.2826C1.04712 25.6362 1.28703 25.9316 1.61786 26.0357L14.3226 30.0355L19.9275 40.534C19.9334 40.5449 19.9394 40.554 19.9456 40.5622C20.0392 40.7227 20.1793 40.8539 20.3542 40.9295C20.4636 40.9769 20.5786 41 20.6929 41C20.9167 41 21.1371 40.9114 21.3034 40.7439L27.7483 34.2622L39.8711 38.0788C39.9549 38.1051 40.041 38.1182 40.1265 38.1182C40.3114 38.1182 40.4939 38.0578 40.646 37.9419C40.8686 37.7724 41 37.5043 41 37.2194V1.89877C41 1.57603 40.8318 1.27801 40.5594 1.11812ZM19.9751 30.5894C19.874 30.7398 19.8198 30.9182 19.8198 31.1011V36.5989L15.9924 29.43L32.9287 11.3464L19.9751 30.5894ZM21.5665 37.9662V32.3161L25.8451 33.6631L21.5665 37.9662ZM39.2533 36.0046L22.0918 30.6017L39.2533 5.10765V36.0046Z" />
    <path d="M23.6774 10.8643L39.6821 1.12513C39.952 0.960842 40.287 0.958146 40.5594 1.11812C40.8318 1.27801 41 1.57603 41 1.89877V37.2194C41 37.5043 40.8686 37.7724 40.646 37.9419C40.4939 38.0578 40.3114 38.1182 40.1266 38.1182C40.041 38.1182 39.9549 38.1051 39.8711 38.0788L27.7483 34.2622L21.3034 40.7439C21.1371 40.9114 20.9167 41 20.6929 41C20.5786 41 20.4636 40.9769 20.3542 40.9295C20.1793 40.8539 20.0392 40.7227 19.9456 40.5622C19.9394 40.554 19.9334 40.5449 19.9275 40.534L14.3226 30.0355L1.61786 26.0357C1.28703 25.9316 1.04712 25.6362 1.00616 25.2826C0.965198 24.9289 1.13105 24.5839 1.42887 24.4026L23.6774 10.8643ZM23.6774 10.8643C23.2622 11.1169 23.1246 11.668 23.3702 12.0953M23.6774 10.8643C24.0926 10.6116 23.1247 11.6681 23.3702 12.0953M23.3702 12.0953C23.6156 12.5225 24.1511 12.664 24.5664 12.4115M23.3702 12.0953C23.6157 12.5226 24.9816 12.1587 24.5664 12.4115M24.5664 12.4115L36.0495 5.42383L14.6604 28.2621L4.02214 24.9128L24.5664 12.4115ZM19.9751 30.5894C19.874 30.7398 19.8198 30.9182 19.8198 31.1011V36.5988L15.9924 29.43L32.9287 11.3464L19.9751 30.5894ZM21.5665 37.9662V32.3161L25.8451 33.6631L21.5665 37.9662ZM39.2533 36.0046L22.0918 30.6017L39.2533 5.10765V36.0046Z"/>
</svg>
