<svg stroke="currentColor" fill="currentColor" width="40" height="40" viewBox="0 0 40 40" fill="none" xmlns="http://www.w3.org/2000/svg">
    <path d="M39.5594 0.118122C39.287 -0.0418543 38.952 -0.039158 38.6821 0.125132L22.6774 9.86429C22.2622 10.1169 22.1246 10.668 22.3702 11.0953C22.6156 11.5225 23.1511 11.664 23.5664 11.4115L35.0495 4.42383L13.6604 27.2621L3.02214 23.9128L23.5664 11.4115C23.9816 11.1587 22.6157 11.5226 22.3702 11.0953C22.1247 10.6681 23.0926 9.61156 22.6774 9.86429L0.428866 23.4026C0.13105 23.5839 -0.0348015 23.9289 0.00615913 24.2826C0.0471198 24.6362 0.287032 24.9316 0.617862 25.0357L13.3226 29.0355L18.9275 39.534C18.9334 39.5449 18.9394 39.554 18.9456 39.5622C19.0392 39.7227 19.1793 39.8539 19.3542 39.9295C19.4636 39.9769 19.5786 40 19.6929 40C19.9167 40 20.1371 39.9114 20.3034 39.7439L26.7483 33.2622L38.8711 37.0788C38.9549 37.1051 39.041 37.1182 39.1266 37.1182C39.3114 37.1182 39.4939 37.0578 39.646 36.9419C39.8686 36.7724 40 36.5043 40 36.2194V0.898772C40 0.576033 39.8318 0.278009 39.5594 0.118122ZM18.9751 29.5894C18.874 29.7398 18.8198 29.9182 18.8198 30.1011V35.5988L14.9924 28.43L31.9287 10.3464L18.9751 29.5894ZM20.5665 36.9662V31.3161L24.8451 32.6631L20.5665 36.9662ZM38.2533 35.0046L21.0918 29.6017L38.2533 4.10765V35.0046Z" />
</svg>
