<svg stroke="currentColor" fill="currentColor" width="40" height="40" viewBox="0 0 40 40" fill="none" xmlns="http://www.w3.org/2000/svg">
    <path fill-rule="evenodd" clip-rule="evenodd" d="M6.29663 0H33.7034C35.2454 0 36.5 1.24611 36.5 2.77778V37.2222C36.5 38.7539 35.2454 40 33.7034 40H6.29663C4.75458 40 3.50003 38.7539 3.50003 37.2222V12.2222L3.5 11.6204L3.50003 11.6132V2.77778C3.50003 1.24611 4.75458 0 6.29663 0ZM5.36443 12.2222L5.36441 12.2293L5.36443 37.2222C5.36443 37.7328 5.78262 38.1481 6.29663 38.1481H33.7034C34.2174 38.1481 34.6356 37.7328 34.6356 37.2222V2.77778C34.6356 2.26722 34.2174 1.85185 33.7034 1.85185H6.29663C5.78262 1.85185 5.36443 2.26722 5.36443 2.77778V12.2222ZM13.7217 28.8675C14.0859 28.5059 14.676 28.506 15.0401 28.8675C15.4041 29.2291 15.4041 29.8154 15.0401 30.1769L11.9029 33.293C11.7279 33.4667 11.4909 33.5642 11.2436 33.5642C10.9964 33.5642 10.7594 33.4667 10.5845 33.293L8.77302 31.4938C8.40899 31.1322 8.40899 30.5459 8.77302 30.1843C9.13732 29.8229 9.72741 29.8228 10.0914 30.1843L11.2436 31.3289L13.7217 28.8675ZM18.602 6.85184H9.65291C9.13814 6.85184 8.7207 7.26637 8.7207 7.77776V16.6667C8.7207 17.178 9.13814 17.5926 9.65291 17.5926H18.602C19.1168 17.5926 19.5343 17.178 19.5343 16.6667V7.77776C19.5343 7.26637 19.1168 6.85184 18.602 6.85184ZM17.6698 15.7407H10.5851V8.70369H17.6698V15.7407ZM14.2842 21.7965C14.6484 21.4349 15.2385 21.435 15.6026 21.7965C15.9666 22.158 15.9666 22.7443 15.6026 23.1059L12.4654 26.222C12.2904 26.3956 12.0534 26.4932 11.8061 26.4932C11.5589 26.4932 11.3219 26.3956 11.147 26.222L9.33552 24.4228C8.97149 24.0612 8.97149 23.4749 9.33552 23.1133C9.69982 22.7518 10.2899 22.7518 10.6539 23.1133L11.8061 24.2579L14.2842 21.7965ZM30.8753 23.0556H19.9996C19.4848 23.0556 19.0674 23.4701 19.0674 23.9815C19.0674 24.4929 19.4848 24.9074 19.9996 24.9074H30.8753C31.3901 24.9074 31.8075 24.4929 31.8075 23.9815C31.8075 23.4701 31.3901 23.0556 30.8753 23.0556ZM23.8219 6.85184H30.3473C30.862 6.85184 31.2795 7.26637 31.2795 7.77776C31.2795 8.28915 30.862 8.70369 30.3473 8.70369H23.8219C23.3071 8.70369 22.8896 8.28915 22.8896 7.77776C22.8896 7.26637 23.3071 6.85184 23.8219 6.85184ZM29.9576 12H23.4322C22.9174 12 22.5 12.4145 22.5 12.9259C22.5 13.4373 22.9174 13.8519 23.4322 13.8519H29.9576C30.4724 13.8519 30.8898 13.4373 30.8898 12.9259C30.8898 12.4145 30.4724 12 29.9576 12ZM19.9996 30.0926H30.8753C31.3901 30.0926 31.8075 30.5071 31.8075 31.0185C31.8075 31.5299 31.3901 31.9444 30.8753 31.9444H19.9996C19.4848 31.9444 19.0674 31.5299 19.0674 31.0185C19.0674 30.5071 19.4848 30.0926 19.9996 30.0926Z"/>
</svg>
