<svg stroke="currentColor" fill="currentColor"  width="40" height="40" viewBox="0 0 40 40" fill="none" xmlns="http://www.w3.org/2000/svg">
<path fill-rule="evenodd" clip-rule="evenodd" d="M6.29663 0H33.7034C35.2454 0 36.5 1.24611 36.5 2.77778V37.2222C36.5 38.7539 35.2454 40 33.7034 40H6.29663C4.75458 40 3.50003 38.7539 3.50003 37.2222V12.2222L3.5 11.6204L3.50003 11.6132V2.77778C3.50003 1.24611 4.75458 0 6.29663 0ZM5.36443 12.2222L5.36441 12.2293L5.36443 37.2222C5.36443 37.7328 5.78262 38.1481 6.29663 38.1481H33.7034C34.2174 38.1481 34.6356 37.7328 34.6356 37.2222V2.77778C34.6356 2.26722 34.2174 1.85185 33.7034 1.85185H6.29663C5.78262 1.85185 5.36443 2.26722 5.36443 2.77778V12.2222ZM13.7217 28.8675C14.0859 28.5059 14.676 28.506 15.0401 28.8675C15.4041 29.2291 15.4041 29.8154 15.0401 30.1769L11.9029 33.293C11.7279 33.4667 11.4909 33.5642 11.2436 33.5642C10.9964 33.5642 10.7594 33.4667 10.5845 33.293L8.77302 31.4938C8.40899 31.1322 8.40899 30.5459 8.77302 30.1843C9.13732 29.8229 9.72741 29.8228 10.0914 30.1843L11.2436 31.3289L13.7217 28.8675ZM18.602 6.85184H9.65291C9.13814 6.85184 8.7207 7.26637 8.7207 7.77776V16.6667C8.7207 17.178 9.13814 17.5926 9.65291 17.5926H18.602C19.1168 17.5926 19.5343 17.178 19.5343 16.6667V7.77776C19.5343 7.26637 19.1168 6.85184 18.602 6.85184ZM17.6698 15.7407H10.5851V8.70369H17.6698V15.7407ZM14.2842 21.7965C14.6484 21.4349 15.2385 21.435 15.6026 21.7965C15.9666 22.158 15.9666 22.7443 15.6026 23.1059L12.4654 26.222C12.2904 26.3956 12.0534 26.4932 11.8061 26.4932C11.5589 26.4932 11.3219 26.3956 11.147 26.222L9.33552 24.4228C8.97149 24.0612 8.97149 23.4749 9.33552 23.1133C9.69982 22.7518 10.2899 22.7518 10.6539 23.1133L11.8061 24.2579L14.2842 21.7965ZM30.8753 23.0556H19.9996C19.4848 23.0556 19.0674 23.4701 19.0674 23.9815C19.0674 24.4929 19.4848 24.9074 19.9996 24.9074H30.8753C31.3901 24.9074 31.8075 24.4929 31.8075 23.9815C31.8075 23.4701 31.3901 23.0556 30.8753 23.0556ZM23.8219 6.85184H30.3473C30.862 6.85184 31.2795 7.26637 31.2795 7.77776C31.2795 8.28915 30.862 8.70369 30.3473 8.70369H23.8219C23.3071 8.70369 22.8896 8.28915 22.8896 7.77776C22.8896 7.26637 23.3071 6.85184 23.8219 6.85184ZM29.9576 12H23.4322C22.9174 12 22.5 12.4145 22.5 12.9259C22.5 13.4373 22.9174 13.8519 23.4322 13.8519H29.9576C30.4724 13.8519 30.8898 13.4373 30.8898 12.9259C30.8898 12.4145 30.4724 12 29.9576 12ZM19.9996 30.0926H30.8753C31.3901 30.0926 31.8075 30.5071 31.8075 31.0185C31.8075 31.5299 31.3901 31.9444 30.8753 31.9444H19.9996C19.4848 31.9444 19.0674 31.5299 19.0674 31.0185C19.0674 30.5071 19.4848 30.0926 19.9996 30.0926Z" fill="white"/>
<path d="M3.50003 12.2222L4.00003 12.2222L4.00003 12.2222L3.50003 12.2222ZM3.5 11.6204L3 11.6185L3 11.6204L3.5 11.6204ZM3.50003 11.6132L4.00003 11.6151V11.6132H3.50003ZM5.36441 12.2293L4.86441 12.2274L4.86441 12.2293L5.36441 12.2293ZM5.36443 12.2222L5.86443 12.2241V12.2222H5.36443ZM5.36443 37.2222L5.86443 37.2222L5.86443 37.2222L5.36443 37.2222ZM15.0401 28.8675L15.3925 28.5127L15.3924 28.5127L15.0401 28.8675ZM13.7217 28.8675L13.3694 28.5127L13.3694 28.5127L13.7217 28.8675ZM15.0401 30.1769L14.6878 29.8222L14.6878 29.8222L15.0401 30.1769ZM11.9029 33.293L12.2551 33.648L12.2552 33.6478L11.9029 33.293ZM10.5845 33.293L10.2321 33.6478L10.2322 33.6479L10.5845 33.293ZM8.77302 31.4938L9.12538 31.139L9.12538 31.139L8.77302 31.4938ZM8.77302 30.1843L8.42084 29.8294L8.42066 29.8296L8.77302 30.1843ZM10.0914 30.1843L10.4438 29.8296L10.4438 29.8296L10.0914 30.1843ZM11.2436 31.3289L10.8913 31.6836L11.2436 32.0336L11.596 31.6836L11.2436 31.3289ZM10.5851 15.7407H10.0851V16.2407H10.5851V15.7407ZM17.6698 15.7407V16.2407H18.1698V15.7407H17.6698ZM10.5851 8.70369V8.20369H10.0851V8.70369H10.5851ZM17.6698 8.70369H18.1698V8.20369H17.6698V8.70369ZM15.6026 21.7965L15.955 21.4417L15.9549 21.4416L15.6026 21.7965ZM14.2842 21.7965L13.9319 21.4416L13.9319 21.4417L14.2842 21.7965ZM15.6026 23.1059L15.955 23.4607L15.955 23.4607L15.6026 23.1059ZM12.4654 26.222L12.8176 26.577L12.8177 26.5768L12.4654 26.222ZM11.147 26.222L10.7946 26.5768L10.7947 26.5769L11.147 26.222ZM9.33552 24.4228L8.98316 24.7775L8.98316 24.7775L9.33552 24.4228ZM9.33552 23.1133L8.98334 22.7584L8.98316 22.7586L9.33552 23.1133ZM10.6539 23.1133L11.0063 22.7586L11.0063 22.7586L10.6539 23.1133ZM11.8061 24.2579L11.4538 24.6126L11.8061 24.9626L12.1585 24.6126L11.8061 24.2579ZM33.7034 -0.5H6.29663V0.5H33.7034V-0.5ZM37 2.77778C37 0.966789 35.5184 -0.5 33.7034 -0.5V0.5C34.9725 0.5 36 1.52543 36 2.77778H37ZM37 37.2222V2.77778H36V37.2222H37ZM33.7034 40.5C35.5184 40.5 37 39.0332 37 37.2222H36C36 38.4746 34.9725 39.5 33.7034 39.5V40.5ZM6.29663 40.5H33.7034V39.5H6.29663V40.5ZM3.00003 37.2222C3.00003 39.0332 4.48163 40.5 6.29663 40.5V39.5C5.02754 39.5 4.00003 38.4746 4.00003 37.2222H3.00003ZM3.00003 12.2222V37.2222H4.00003V12.2222H3.00003ZM3 11.6204L3.00003 12.2222L4.00003 12.2222L4 11.6203L3 11.6204ZM3.00003 11.6112L3 11.6185L4 11.6223L4.00002 11.6151L3.00003 11.6112ZM3.00003 2.77778V11.6132H4.00003V2.77778H3.00003ZM6.29663 -0.5C4.48163 -0.5 3.00003 0.96679 3.00003 2.77778H4.00003C4.00003 1.52543 5.02754 0.5 6.29663 0.5V-0.5ZM5.8644 12.2312L5.86443 12.2241L4.86444 12.2203L4.86441 12.2274L5.8644 12.2312ZM5.86443 37.2222L5.86441 12.2293L4.86441 12.2293L4.86443 37.2222L5.86443 37.2222ZM6.29663 37.6481C6.05557 37.6481 5.86443 37.4535 5.86443 37.2222H4.86443C4.86443 38.0121 5.50966 38.6481 6.29663 38.6481V37.6481ZM33.7034 37.6481H6.29663V38.6481H33.7034V37.6481ZM34.1356 37.2222C34.1356 37.4535 33.9445 37.6481 33.7034 37.6481V38.6481C34.4904 38.6481 35.1356 38.0121 35.1356 37.2222H34.1356ZM34.1356 2.77778V37.2222H35.1356V2.77778H34.1356ZM33.7034 2.35185C33.9445 2.35185 34.1356 2.54654 34.1356 2.77778H35.1356C35.1356 1.9879 34.4904 1.35185 33.7034 1.35185V2.35185ZM6.29663 2.35185H33.7034V1.35185H6.29663V2.35185ZM5.86443 2.77778C5.86443 2.54654 6.05557 2.35185 6.29663 2.35185V1.35185C5.50967 1.35185 4.86443 1.9879 4.86443 2.77778H5.86443ZM5.86443 12.2222V2.77778H4.86443V12.2222H5.86443ZM15.3924 28.5127C14.8333 27.9577 13.9286 27.9575 13.3694 28.5127L14.074 29.2223C14.2432 29.0543 14.5187 29.0544 14.6879 29.2223L15.3924 28.5127ZM15.3925 30.5317C15.9534 29.9746 15.9534 29.0698 15.3925 28.5127L14.6878 29.2222C14.8549 29.3883 14.8549 29.6561 14.6878 29.8222L15.3925 30.5317ZM12.2552 33.6478L15.3925 30.5317L14.6878 29.8222L11.5505 32.9383L12.2552 33.6478ZM11.2436 34.0642C11.6226 34.0642 11.9862 33.9147 12.2551 33.648L11.5507 32.9381C11.4696 33.0186 11.3593 33.0642 11.2436 33.0642V34.0642ZM10.2322 33.6479C10.501 33.9147 10.8648 34.0642 11.2436 34.0642V33.0642C11.128 33.0642 11.0177 33.0186 10.9367 32.9382L10.2322 33.6479ZM8.42066 31.8485L10.2321 33.6478L10.9368 32.9383L9.12538 31.139L8.42066 31.8485ZM8.42066 29.8296C7.85978 30.3867 7.85978 31.2914 8.42066 31.8485L9.12538 31.139C8.95821 30.973 8.95821 30.7051 9.12538 30.5391L8.42066 29.8296ZM10.4438 29.8296C9.88465 29.2742 8.97996 29.2746 8.42084 29.8294L9.12519 30.5393C9.29469 30.3711 9.57017 30.3713 9.73908 30.5391L10.4438 29.8296ZM11.596 30.9741L10.4438 29.8296L9.73906 30.5391L10.8913 31.6836L11.596 30.9741ZM13.3694 28.5127L10.8913 30.9741L11.596 31.6836L14.0741 29.2222L13.3694 28.5127ZM9.65291 7.35184H18.602V6.35184H9.65291V7.35184ZM9.2207 7.77776C9.2207 7.54573 9.41106 7.35184 9.65291 7.35184V6.35184C8.86522 6.35184 8.2207 6.98702 8.2207 7.77776H9.2207ZM9.2207 16.6667V7.77776H8.2207V16.6667H9.2207ZM9.65291 17.0926C9.41106 17.0926 9.2207 16.8987 9.2207 16.6667H8.2207C8.2207 17.4574 8.86522 18.0926 9.65291 18.0926V17.0926ZM18.602 17.0926H9.65291V18.0926H18.602V17.0926ZM19.0343 16.6667C19.0343 16.8987 18.8439 17.0926 18.602 17.0926V18.0926C19.3897 18.0926 20.0343 17.4574 20.0343 16.6667H19.0343ZM19.0343 7.77776V16.6667H20.0343V7.77776H19.0343ZM18.602 7.35184C18.8439 7.35184 19.0343 7.54573 19.0343 7.77776H20.0343C20.0343 6.98702 19.3897 6.35184 18.602 6.35184V7.35184ZM10.5851 16.2407H17.6698V15.2407H10.5851V16.2407ZM10.0851 8.70369V15.7407H11.0851V8.70369H10.0851ZM17.6698 8.20369H10.5851V9.20369H17.6698V8.20369ZM18.1698 15.7407V8.70369H17.1698V15.7407H18.1698ZM15.9549 21.4416C15.3958 20.8866 14.4912 20.8865 13.9319 21.4416L14.6365 22.1513C14.8057 21.9833 15.0812 21.9834 15.2504 22.1513L15.9549 21.4416ZM15.955 23.4607C16.5159 22.9036 16.5159 21.9988 15.955 21.4417L15.2503 22.1512C15.4174 22.3173 15.4174 22.5851 15.2503 22.7512L15.955 23.4607ZM12.8177 26.5768L15.955 23.4607L15.2503 22.7512L12.113 25.8673L12.8177 26.5768ZM11.8061 26.9932C12.1851 26.9932 12.5487 26.8437 12.8176 26.577L12.1132 25.8671C12.0321 25.9476 11.9218 25.9932 11.8061 25.9932V26.9932ZM10.7947 26.5769C11.0635 26.8437 11.4273 26.9932 11.8061 26.9932V25.9932C11.6905 25.9932 11.5802 25.9476 11.4992 25.8672L10.7947 26.5769ZM8.98316 24.7775L10.7946 26.5768L11.4993 25.8673L9.68788 24.068L8.98316 24.7775ZM8.98316 22.7586C8.42228 23.3157 8.42228 24.2204 8.98316 24.7775L9.68788 24.068C9.52071 23.902 9.52071 23.6341 9.68788 23.4681L8.98316 22.7586ZM11.0063 22.7586C10.4471 22.2032 9.54246 22.2036 8.98334 22.7584L9.68769 23.4683C9.85719 23.3001 10.1327 23.3003 10.3016 23.4681L11.0063 22.7586ZM12.1585 23.9031L11.0063 22.7586L10.3016 23.4681L11.4538 24.6126L12.1585 23.9031ZM13.9319 21.4417L11.4538 23.9031L12.1585 24.6126L14.6366 22.1512L13.9319 21.4417ZM19.9996 23.5556H30.8753V22.5556H19.9996V23.5556ZM19.5674 23.9815C19.5674 23.7495 19.7577 23.5556 19.9996 23.5556V22.5556C19.2119 22.5556 18.5674 23.1908 18.5674 23.9815H19.5674ZM19.9996 24.4074C19.7577 24.4074 19.5674 24.2135 19.5674 23.9815H18.5674C18.5674 24.7722 19.2119 25.4074 19.9996 25.4074V24.4074ZM30.8753 24.4074H19.9996V25.4074H30.8753V24.4074ZM31.3075 23.9815C31.3075 24.2135 31.1172 24.4074 30.8753 24.4074V25.4074C31.663 25.4074 32.3075 24.7722 32.3075 23.9815H31.3075ZM30.8753 23.5556C31.1172 23.5556 31.3075 23.7495 31.3075 23.9815H32.3075C32.3075 23.1908 31.663 22.5556 30.8753 22.5556V23.5556ZM30.3473 6.35184H23.8219V7.35184H30.3473V6.35184ZM31.7795 7.77776C31.7795 6.98702 31.135 6.35184 30.3473 6.35184V7.35184C30.5891 7.35184 30.7795 7.54573 30.7795 7.77776H31.7795ZM30.3473 9.20369C31.135 9.20369 31.7795 8.56851 31.7795 7.77776H30.7795C30.7795 8.0098 30.5891 8.20369 30.3473 8.20369V9.20369ZM23.8219 9.20369H30.3473V8.20369H23.8219V9.20369ZM22.3896 7.77776C22.3896 8.56851 23.0342 9.20369 23.8219 9.20369V8.20369C23.58 8.20369 23.3896 8.0098 23.3896 7.77776H22.3896ZM23.8219 6.35184C23.0342 6.35184 22.3896 6.98702 22.3896 7.77776H23.3896C23.3896 7.54573 23.58 7.35184 23.8219 7.35184V6.35184ZM23.4322 12.5H29.9576V11.5H23.4322V12.5ZM23 12.9259C23 12.6939 23.1904 12.5 23.4322 12.5V11.5C22.6445 11.5 22 12.1352 22 12.9259H23ZM23.4322 13.3519C23.1904 13.3519 23 13.158 23 12.9259H22C22 13.7167 22.6445 14.3519 23.4322 14.3519V13.3519ZM29.9576 13.3519H23.4322V14.3519H29.9576V13.3519ZM30.3898 12.9259C30.3898 13.158 30.1995 13.3519 29.9576 13.3519V14.3519C30.7453 14.3519 31.3898 13.7167 31.3898 12.9259H30.3898ZM29.9576 12.5C30.1995 12.5 30.3898 12.6939 30.3898 12.9259H31.3898C31.3898 12.1352 30.7453 11.5 29.9576 11.5V12.5ZM30.8753 29.5926H19.9996V30.5926H30.8753V29.5926ZM32.3075 31.0185C32.3075 30.2278 31.663 29.5926 30.8753 29.5926V30.5926C31.1172 30.5926 31.3075 30.7865 31.3075 31.0185H32.3075ZM30.8753 32.4444C31.663 32.4444 32.3075 31.8093 32.3075 31.0185H31.3075C31.3075 31.2506 31.1172 31.4444 30.8753 31.4444V32.4444ZM19.9996 32.4444H30.8753V31.4444H19.9996V32.4444ZM18.5674 31.0185C18.5674 31.8093 19.2119 32.4444 19.9996 32.4444V31.4444C19.7577 31.4444 19.5674 31.2506 19.5674 31.0185H18.5674ZM19.9996 29.5926C19.2119 29.5926 18.5674 30.2278 18.5674 31.0185H19.5674C19.5674 30.7865 19.7577 30.5926 19.9996 30.5926V29.5926Z"/>
</svg>
